ply
format ascii 1.0
element vertex 343
property float end_x
property float end_y
property float end_z
property int path_id
property int group_id
end_header
1.343538 -1.988694 0.000000 0 0
1.472466 -1.895216 0.000000 1 0
1.594910 -1.793394 0.000000 2 0
1.710332 -1.683675 0.000000 3 0
1.818224 -1.566544 0.000000 4 0
1.918111 -1.442515 0.000000 5 0
2.009552 -1.312136 0.000000 6 0
1.539238 -1.841398 0.000000 7 0
1.657966 -1.735266 0.000000 8 0
1.769395 -1.621494 0.000000 9 0
1.873033 -1.500582 0.000000 10 0
1.968424 -1.373064 0.000000 11 0
2.055149 -1.239501 0.000000 12 0
2.132825 -1.100480 0.000000 13 0
1.718905 -1.674922 0.000000 14 0
1.826198 -1.557242 0.000000 15 0
1.925450 -1.432705 0.000000 16 0
2.016225 -1.301860 0.000000 17 0
2.098122 -1.165283 0.000000 18 0
2.170782 -1.023576 0.000000 19 0
2.233884 -0.877362 0.000000 20 0
1.880669 -1.491001 0.000000 21 0
1.975408 -1.362997 0.000000 22 0
2.061450 -1.228993 0.000000 23 0
2.138416 -1.089577 0.000000 24 0
2.205966 -0.945364 0.000000 25 0
2.263804 -0.796989 0.000000 26 0
2.311675 -0.645105 0.000000 27 0
2.022844 -1.291550 0.000000 28 0
2.104043 -1.154557 0.000000 29 0
2.175979 -1.012480 0.000000 30 0
2.238334 -0.865946 0.000000 31 0
2.290833 -0.715599 0.000000 32 0
2.333247 -0.562102 0.000000 33 0
2.365388 -0.406129 0.000000 34 0
2.143950 -1.078646 0.000000 35 0
2.210763 -0.934090 0.000000 36 0
2.267843 -0.785422 0.000000 37 0
2.314938 -0.633295 0.000000 38 0
2.351840 -0.478380 0.000000 39 0
2.378388 -0.321359 0.000000 40 0
2.394464 -0.162923 0.000000 41 0
2.242725 -0.854508 0.000000 42 0
2.294457 -0.703895 0.000000 43 0
2.336086 -0.550183 0.000000 44 0
2.367430 -0.394048 0.000000 45 0
2.388351 -0.236179 0.000000 46 0
2.398756 -0.077270 0.000000 47 0
2.398599 0.081980 0.000000 48 0
1.638098 -1.754034 0.000000 49 1
1.750815 -1.641538 0.000000 50 1
1.855823 -1.521815 0.000000 51 1
1.952660 -1.395392 0.000000 52 1
2.040900 -1.262824 0.000000 53 1
2.120155 -1.124697 0.000000 54 1
2.190074 -0.981618 0.000000 55 1
1.808346 -1.577937 0.000000 56 1
1.909009 -1.454539 0.000000 57 1
2.001268 -1.324736 0.000000 58 1
2.084716 -1.189101 0.000000 59 1
2.158984 -1.048230 0.000000 60 1
2.223748 -0.902744 0.000000 61 1
2.278720 -0.753284 0.000000 62 1
1.959758 -1.385405 0.000000 63 1
2.047321 -1.252389 0.000000 64 1
2.125869 -1.113859 0.000000 65 1
2.195057 -0.970425 0.000000 66 1
2.254581 -0.822718 0.000000 67 1
2.304178 -0.671389 0.000000 68 1
2.343631 -0.517103 0.000000 69 1
2.090759 -1.178443 0.000000 70 1
2.164308 -1.037195 0.000000 71 1
2.228327 -0.891380 0.000000 72 1
2.282536 -0.741641 0.000000 73 1
2.326695 -0.588636 0.000000 74 1
2.360609 -0.433040 0.000000 75 1
2.384131 -0.275537 0.000000 76 1
2.199983 -0.959206 0.000000 77 1
2.258752 -0.811197 0.000000 78 1
2.307576 -0.659617 0.000000 79 1
2.346240 -0.505132 0.000000 80 1
2.374574 -0.348424 0.000000 81 1
2.392453 -0.190181 0.000000 82 1
2.399798 -0.031101 0.000000 83 1
2.286292 -0.729979 0.000000 84 1
2.329669 -0.576751 0.000000 85 1
2.362789 -0.420983 0.000000 86 1
2.385506 -0.263362 0.000000 87 1
2.397720 -0.104582 0.000000 88 1
2.399378 0.054659 0.000000 89 1
2.390471 0.213659 0.000000 90 1
2.348788 -0.493148 0.000000 91 1
2.376322 -0.336297 0.000000 92 1
2.393393 -0.177965 0.000000 93 1
2.399926 -0.018849 0.000000 94 1
2.395893 0.140349 0.000000 95 1
2.381311 0.298930 0.000000 96 1
2.356244 0.456194 0.000000 97 1
1.892321 -1.476184 0.000000 98 2
1.986052 -1.347441 0.000000 99 2
2.071039 -1.212764 0.000000 100 2
2.146907 -1.072749 0.000000 101 2
2.213323 -0.928010 0.000000 102 2
2.269994 -0.779185 0.000000 103 2
2.316670 -0.626929 0.000000 104 2
2.032926 -1.275623 0.000000 105 2
2.113046 -1.137996 0.000000 106 2
2.183864 -0.995359 0.000000 107 2
2.245066 -0.848340 0.000000 108 2
2.296383 -0.697585 0.000000 109 2
2.337590 -0.543759 0.000000 110 2
2.368504 -0.387539 0.000000 111 2
2.152356 -1.061775 0.000000 112 2
2.218032 -0.916698 0.000000 113 2
2.273942 -0.767586 0.000000 114 2
2.319840 -0.615094 0.000000 115 2
2.355525 -0.459895 0.000000 116 2
2.380838 -0.302670 0.000000 117 2
2.395669 -0.144112 0.000000 118 2
2.249367 -0.836867 0.000000 119 2
2.299914 -0.685853 0.000000 120 2
2.340335 -0.531819 0.000000 121 2
2.370452 -0.375443 0.000000 122 2
2.390132 -0.217414 0.000000 123 2
2.399289 -0.058428 0.000000 124 2
2.397882 0.100815 0.000000 125 2
2.322950 -0.603244 0.000000 126 2
2.357842 -0.447863 0.000000 127 2
2.382352 -0.290511 0.000000 128 2
2.396374 -0.131880 0.000000 129 2
2.399844 0.027331 0.000000 130 2
2.392749 0.186423 0.000000 131 2
2.375118 0.344693 0.000000 132 2
2.372338 -0.363337 0.000000 133 2
2.391211 -0.205209 0.000000 134 2
2.399556 -0.046179 0.000000 135 2
2.397336 0.113055 0.000000 136 2
2.384561 0.271792 0.000000 137 2
2.361287 0.429331 0.000000 138 2
2.327616 0.584981 0.000000 139 2
2.397016 -0.119645 0.000000 140 2
2.399674 0.039582 0.000000 141 2
2.391766 0.198635 0.000000 142 2
2.373328 0.356814 0.000000 143 2
2.344440 0.513421 0.000000 144 2
2.305230 0.667768 0.000000 145 2
2.255871 0.819175 0.000000 146 2
2.099950 -1.161986 0.000000 147 3
2.172387 -1.020164 0.000000 148 3
2.235259 -0.873851 0.000000 149 3
2.288290 -0.723691 0.000000 150 3
2.331246 -0.570344 0.000000 151 3
2.363938 -0.414487 0.000000 152 3
2.386221 -0.256804 0.000000 153 3
2.207448 -0.941898 0.000000 154 3
2.265053 -0.793432 0.000000 155 3
2.312685 -0.641473 0.000000 156 3
2.350135 -0.486690 0.000000 157 3
2.377237 -0.329763 0.000000 158 3
2.393873 -0.171385 0.000000 159 3
2.399969 -0.012252 0.000000 160 3
2.291955 -0.712000 0.000000 161 3
2.334127 -0.558436 0.000000 162 3
2.366023 -0.402413 0.000000 163 3
2.387501 -0.244619 0.000000 164 3
2.398468 -0.085747 0.000000 165 3
2.398874 0.073502 0.000000 166 3
2.388719 0.232427 0.000000 167 3
2.352589 -0.474686 0.000000 168 3
2.378890 -0.317623 0.000000 169 3
2.394717 -0.159162 0.000000 170 3
2.400000 0.000000 0.000000 171 3
2.394717 0.159162 0.000000 172 3
2.378890 0.317623 0.000000 173 3
2.352589 0.474686 0.000000 174 3
2.388719 -0.232427 0.000000 175 3
2.398874 -0.073502 0.000000 176 3
2.398468 0.085747 0.000000 177 3
2.387501 0.244619 0.000000 178 3
2.366023 0.402413 0.000000 179 3
2.334127 0.558436 0.000000 180 3
2.291955 0.712000 0.000000 181 3
2.399969 0.012252 0.000000 182 3
2.393873 0.171385 0.000000 183 3
2.377237 0.329763 0.000000 184 3
2.350135 0.486690 0.000000 185 3
2.312685 0.641473 0.000000 186 3
2.265053 0.793432 0.000000 187 3
2.207448 0.941898 0.000000 188 3
2.386221 0.256804 0.000000 189 3
2.363938 0.414487 0.000000 190 3
2.331246 0.570344 0.000000 191 3
2.288290 0.723691 0.000000 192 3
2.235259 0.873851 0.000000 193 3
2.172387 1.020164 0.000000 194 3
2.099950 1.161986 0.000000 195 3
2.255871 -0.819175 0.000000 196 4
2.305230 -0.667768 0.000000 197 4
2.344440 -0.513421 0.000000 198 4
2.373328 -0.356814 0.000000 199 4
2.391766 -0.198635 0.000000 200 4
2.399674 -0.039582 0.000000 201 4
2.397016 0.119645 0.000000 202 4
2.327616 -0.584981 0.000000 203 4
2.361287 -0.429331 0.000000 204 4
2.384561 -0.271792 0.000000 205 4
2.397336 -0.113055 0.000000 206 4
2.399556 0.046179 0.000000 207 4
2.391211 0.205209 0.000000 208 4
2.372338 0.363337 0.000000 209 4
2.375118 -0.344693 0.000000 210 4
2.392749 -0.186423 0.000000 211 4
2.399844 -0.027331 0.000000 212 4
2.396374 0.131880 0.000000 213 4
2.382352 0.290511 0.000000 214 4
2.357842 0.447863 0.000000 215 4
2.322950 0.603244 0.000000 216 4
2.397882 -0.100815 0.000000 217 4
2.399289 0.058428 0.000000 218 4
2.390132 0.217414 0.000000 219 4
2.370452 0.375443 0.000000 220 4
2.340335 0.531819 0.000000 221 4
2.299914 0.685853 0.000000 222 4
2.249367 0.836867 0.000000 223 4
2.395669 0.144112 0.000000 224 4
2.380838 0.302670 0.000000 225 4
2.355525 0.459895 0.000000 226 4
2.319840 0.615094 0.000000 227 4
2.273942 0.767586 0.000000 228 4
2.218032 0.916698 0.000000 229 4
2.152356 1.061775 0.000000 230 4
2.368504 0.387539 0.000000 231 4
2.337590 0.543759 0.000000 232 4
2.296383 0.697585 0.000000 233 4
2.245066 0.848340 0.000000 234 4
2.183864 0.995359 0.000000 235 4
2.113046 1.137996 0.000000 236 4
2.032926 1.275623 0.000000 237 4
2.316670 0.626929 0.000000 238 4
2.269994 0.779185 0.000000 239 4
2.213323 0.928010 0.000000 240 4
2.146907 1.072749 0.000000 241 4
2.071039 1.212764 0.000000 242 4
1.986052 1.347441 0.000000 243 4
1.892321 1.476184 0.000000 244 4
2.356244 -0.456194 0.000000 245 5
2.381311 -0.298930 0.000000 246 5
2.395893 -0.140349 0.000000 247 5
2.399926 0.018849 0.000000 248 5
2.393393 0.177965 0.000000 249 5
2.376322 0.336297 0.000000 250 5
2.348788 0.493148 0.000000 251 5
2.390471 -0.213659 0.000000 252 5
2.399378 -0.054659 0.000000 253 5
2.397720 0.104582 0.000000 254 5
2.385506 0.263362 0.000000 255 5
2.362789 0.420983 0.000000 256 5
2.329669 0.576751 0.000000 257 5
2.286292 0.729979 0.000000 258 5
2.399798 0.031101 0.000000 259 5
2.392453 0.190181 0.000000 260 5
2.374574 0.348424 0.000000 261 5
2.346240 0.505132 0.000000 262 5
2.307576 0.659617 0.000000 263 5
2.258752 0.811197 0.000000 264 5
2.199983 0.959206 0.000000 265 5
2.384131 0.275537 0.000000 266 5
2.360609 0.433040 0.000000 267 5
2.326695 0.588636 0.000000 268 5
2.282536 0.741641 0.000000 269 5
2.228327 0.891380 0.000000 270 5
2.164308 1.037195 0.000000 271 5
2.090759 1.178443 0.000000 272 5
2.343631 0.517103 0.000000 273 5
2.304178 0.671389 0.000000 274 5
2.254581 0.822718 0.000000 275 5
2.195057 0.970425 0.000000 276 5
2.125869 1.113859 0.000000 277 5
2.047321 1.252389 0.000000 278 5
1.959758 1.385405 0.000000 279 5
2.278720 0.753284 0.000000 280 5
2.223748 0.902744 0.000000 281 5
2.158984 1.048230 0.000000 282 5
2.084716 1.189101 0.000000 283 5
2.001268 1.324736 0.000000 284 5
1.909009 1.454539 0.000000 285 5
1.808346 1.577937 0.000000 286 5
2.190074 0.981618 0.000000 287 5
2.120155 1.124697 0.000000 288 5
2.040900 1.262824 0.000000 289 5
1.952660 1.395392 0.000000 290 5
1.855823 1.521815 0.000000 291 5
1.750815 1.641538 0.000000 292 5
1.638098 1.754034 0.000000 293 5
2.398599 -0.081980 0.000000 294 6
2.398756 0.077270 0.000000 295 6
2.388351 0.236179 0.000000 296 6
2.367430 0.394048 0.000000 297 6
2.336086 0.550183 0.000000 298 6
2.294457 0.703895 0.000000 299 6
2.242725 0.854508 0.000000 300 6
2.394464 0.162923 0.000000 301 6
2.378388 0.321359 0.000000 302 6
2.351840 0.478380 0.000000 303 6
2.314938 0.633295 0.000000 304 6
2.267843 0.785422 0.000000 305 6
2.210763 0.934090 0.000000 306 6
2.143950 1.078646 0.000000 307 6
2.365388 0.406129 0.000000 308 6
2.333247 0.562102 0.000000 309 6
2.290833 0.715599 0.000000 310 6
2.238334 0.865946 0.000000 311 6
2.175979 1.012480 0.000000 312 6
2.104043 1.154557 0.000000 313 6
2.022844 1.291550 0.000000 314 6
2.311675 0.645105 0.000000 315 6
2.263804 0.796989 0.000000 316 6
2.205966 0.945364 0.000000 317 6
2.138416 1.089577 0.000000 318 6
2.061450 1.228993 0.000000 319 6
1.975408 1.362997 0.000000 320 6
1.880669 1.491001 0.000000 321 6
2.233884 0.877362 0.000000 322 6
2.170782 1.023576 0.000000 323 6
2.098122 1.165283 0.000000 324 6
2.016225 1.301860 0.000000 325 6
1.925450 1.432705 0.000000 326 6
1.826198 1.557242 0.000000 327 6
1.718905 1.674922 0.000000 328 6
2.132825 1.100480 0.000000 329 6
2.055149 1.239501 0.000000 330 6
1.968424 1.373064 0.000000 331 6
1.873033 1.500582 0.000000 332 6
1.769395 1.621494 0.000000 333 6
1.657966 1.735266 0.000000 334 6
1.539238 1.841398 0.000000 335 6
2.009552 1.312136 0.000000 336 6
1.918111 1.442515 0.000000 337 6
1.818224 1.566544 0.000000 338 6
1.710332 1.683675 0.000000 339 6
1.594910 1.793394 0.000000 340 6
1.472466 1.895216 0.000000 341 6
1.343538 1.988694 0.000000 342 6
