ply
format ascii 1.0
element vertex 567
property float x
property float y
property float z
property int group_id
end_header
0.000000 0.000000 0.000000 0
0.010000 -0.000059 0.000000 0
0.019999 -0.000236 0.000000 0
0.029995 -0.000530 0.000000 0
0.039989 -0.000942 0.000000 0
0.049978 -0.001472 0.000000 0
0.059963 -0.002120 0.000000 0
0.069941 -0.002886 0.000000 0
0.079911 -0.003769 0.000000 0
0.089874 -0.004769 0.000000 0
0.099827 -0.005887 0.000000 0
0.109769 -0.007123 0.000000 0
0.119700 -0.008475 0.000000 0
0.129619 -0.009945 0.000000 0
0.139524 -0.011532 0.000000 0
0.149415 -0.013236 0.000000 0
0.159290 -0.015057 0.000000 0
0.169148 -0.016995 0.000000 0
0.178989 -0.019049 0.000000 0
0.188811 -0.021220 0.000000 0
0.198614 -0.023507 0.000000 0
0.208395 -0.025911 0.000000 0
0.218155 -0.028430 0.000000 0
0.227892 -0.031065 0.000000 0
0.237606 -0.033816 0.000000 0
0.247294 -0.036683 0.000000 0
0.256957 -0.039664 0.000000 0
0.266592 -0.042761 0.000000 0
0.276200 -0.045972 0.000000 0
0.285779 -0.049298 0.000000 0
0.295328 -0.052739 0.000000 0
0.304846 -0.056294 0.000000 0
0.314332 -0.059962 0.000000 0
0.323785 -0.063744 0.000000 0
0.333204 -0.067640 0.000000 0
0.342588 -0.071648 0.000000 0
0.351936 -0.075770 0.000000 0
0.361247 -0.080004 0.000000 0
0.370520 -0.084350 0.000000 0
0.379754 -0.088808 0.000000 0
0.388948 -0.093378 0.000000 0
0.398101 -0.098059 0.000000 0
0.407212 -0.102851 0.000000 0
0.416280 -0.107754 0.000000 0
0.425304 -0.112767 0.000000 0
0.434283 -0.117890 0.000000 0
0.443216 -0.123123 0.000000 0
0.452103 -0.128465 0.000000 0
0.460941 -0.133916 0.000000 0
0.469730 -0.139475 0.000000 0
0.478470 -0.145142 0.000000 0
0.487159 -0.150917 0.000000 0
0.495796 -0.156800 0.000000 0
0.504381 -0.162789 0.000000 0
0.512911 -0.168885 0.000000 0
0.521387 -0.175086 0.000000 0
0.529808 -0.181394 0.000000 0
0.538172 -0.187806 0.000000 0
0.546478 -0.194323 0.000000 0
0.554726 -0.200945 0.000000 0
0.562915 -0.207670 0.000000 0
0.571043 -0.214499 0.000000 0
0.579110 -0.221430 0.000000 0
0.587115 -0.228464 0.000000 0
0.595057 -0.235600 0.000000 0
0.602935 -0.242837 0.000000 0
0.610748 -0.250175 0.000000 0
0.618495 -0.257613 0.000000 0
0.626175 -0.265151 0.000000 0
0.633788 -0.272788 0.000000 0
0.641332 -0.280524 0.000000 0
0.648806 -0.288358 0.000000 0
0.656210 -0.296290 0.000000 0
0.663543 -0.304319 0.000000 0
0.670804 -0.312445 0.000000 0
0.677992 -0.320666 0.000000 0
0.685106 -0.328983 0.000000 0
0.692145 -0.337395 0.000000 0
0.699109 -0.345901 0.000000 0
0.705996 -0.354500 0.000000 0
0.712805 -0.363192 0.000000 0
0.000000 0.000000 0.000000 1
0.010000 -0.000039 0.000000 1
0.019999 -0.000157 0.000000 1
0.029998 -0.000353 0.000000 1
0.039995 -0.000628 0.000000 1
0.049990 -0.000982 0.000000 1
0.059983 -0.001414 0.000000 1
0.069974 -0.001924 0.000000 1
0.079961 -0.002513 0.000000 1
0.089944 -0.003180 0.000000 1
0.099923 -0.003926 0.000000 1
0.109897 -0.004750 0.000000 1
0.119867 -0.005653 0.000000 1
0.129831 -0.006634 0.000000 1
0.139788 -0.007693 0.000000 1
0.149740 -0.008831 0.000000 1
0.159684 -0.010046 0.000000 1
0.169621 -0.011341 0.000000 1
0.179551 -0.012713 0.000000 1
0.189471 -0.014163 0.000000 1
0.199383 -0.015692 0.000000 1
0.209286 -0.017298 0.000000 1
0.219179 -0.018983 0.000000 1
0.229062 -0.020746 0.000000 1
0.238935 -0.022586 0.000000 1
0.248796 -0.024504 0.000000 1
0.258646 -0.026500 0.000000 1
0.268484 -0.028574 0.000000 1
0.278309 -0.030726 0.000000 1
0.288121 -0.032955 0.000000 1
0.297921 -0.035261 0.000000 1
0.307706 -0.037645 0.000000 1
0.317477 -0.040107 0.000000 1
0.327233 -0.042645 0.000000 1
0.336974 -0.045261 0.000000 1
0.346699 -0.047954 0.000000 1
0.356409 -0.050724 0.000000 1
0.366101 -0.053572 0.000000 1
0.375777 -0.056496 0.000000 1
0.385435 -0.059496 0.000000 1
0.395075 -0.062574 0.000000 1
0.404697 -0.065728 0.000000 1
0.414300 -0.068958 0.000000 1
0.423884 -0.072265 0.000000 1
0.433448 -0.075649 0.000000 1
0.442992 -0.079108 0.000000 1
0.452515 -0.082644 0.000000 1
0.462017 -0.086256 0.000000 1
0.471498 -0.089943 0.000000 1
0.480956 -0.093706 0.000000 1
0.490393 -0.097545 0.000000 1
0.499806 -0.101460 0.000000 1
0.509196 -0.105449 0.000000 1
0.518562 -0.109514 0.000000 1
0.527904 -0.113655 0.000000 1
0.537221 -0.117870 0.000000 1
0.546513 -0.122160 0.000000 1
0.555780 -0.126525 0.000000 1
0.565021 -0.130965 0.000000 1
0.574235 -0.135479 0.000000 1
0.583422 -0.140067 0.000000 1
0.592582 -0.144730 0.000000 1
0.601714 -0.149467 0.000000 1
0.610818 -0.154277 0.000000 1
0.619893 -0.159162 0.000000 1
0.628939 -0.164120 0.000000 1
0.637956 -0.169151 0.000000 1
0.646943 -0.174256 0.000000 1
0.655899 -0.179434 0.000000 1
0.664824 -0.184685 0.000000 1
0.673719 -0.190008 0.000000 1
0.682581 -0.195405 0.000000 1
0.691411 -0.200874 0.000000 1
0.700209 -0.206415 0.000000 1
0.708974 -0.212028 0.000000 1
0.717705 -0.217714 0.000000 1
0.726403 -0.223471 0.000000 1
0.735066 -0.229299 0.000000 1
0.743694 -0.235200 0.000000 1
0.752288 -0.241171 0.000000 1
0.760845 -0.247214 0.000000 1
0.000000 0.000000 0.000000 2
0.010000 -0.000020 0.000000 2
0.020000 -0.000079 0.000000 2
0.029999 -0.000177 0.000000 2
0.039999 -0.000314 0.000000 2
0.049998 -0.000491 0.000000 2
0.059996 -0.000707 0.000000 2
0.069993 -0.000962 0.000000 2
0.079990 -0.001257 0.000000 2
0.089986 -0.001590 0.000000 2
0.099981 -0.001963 0.000000 2
0.109974 -0.002376 0.000000 2
0.119967 -0.002827 0.000000 2
0.129958 -0.003318 0.000000 2
0.139947 -0.003848 0.000000 2
0.149935 -0.004417 0.000000 2
0.159921 -0.005026 0.000000 2
0.169905 -0.005673 0.000000 2
0.179888 -0.006360 0.000000 2
0.189868 -0.007087 0.000000 2
0.199846 -0.007852 0.000000 2
0.209822 -0.008657 0.000000 2
0.219795 -0.009500 0.000000 2
0.229766 -0.010383 0.000000 2
0.239734 -0.011306 0.000000 2
0.249699 -0.012267 0.000000 2
0.259661 -0.013267 0.000000 2
0.269621 -0.014307 0.000000 2
0.279577 -0.015386 0.000000 2
0.289530 -0.016504 0.000000 2
0.299480 -0.017661 0.000000 2
0.309426 -0.018858 0.000000 2
0.319369 -0.020093 0.000000 2
0.329308 -0.021368 0.000000 2
0.339243 -0.022681 0.000000 2
0.349174 -0.024034 0.000000 2
0.359101 -0.025426 0.000000 2
0.369024 -0.026857 0.000000 2
0.378943 -0.028327 0.000000 2
0.388857 -0.029836 0.000000 2
0.398767 -0.031384 0.000000 2
0.408672 -0.032971 0.000000 2
0.418573 -0.034597 0.000000 2
0.428468 -0.036262 0.000000 2
0.438359 -0.037966 0.000000 2
0.448245 -0.039709 0.000000 2
0.458125 -0.041491 0.000000 2
0.468000 -0.043312 0.000000 2
0.477870 -0.045172 0.000000 2
0.487734 -0.047071 0.000000 2
0.497592 -0.049009 0.000000 2
0.507445 -0.050985 0.000000 2
0.517292 -0.053001 0.000000 2
0.527133 -0.055055 0.000000 2
0.536967 -0.057148 0.000000 2
0.546796 -0.059280 0.000000 2
0.556618 -0.061451 0.000000 2
0.566434 -0.063661 0.000000 2
0.576243 -0.065909 0.000000 2
0.586045 -0.068196 0.000000 2
0.595841 -0.070522 0.000000 2
0.605630 -0.072887 0.000000 2
0.615412 -0.075290 0.000000 2
0.625186 -0.077733 0.000000 2
0.634953 -0.080213 0.000000 2
0.644713 -0.082733 0.000000 2
0.654466 -0.085291 0.000000 2
0.664211 -0.087887 0.000000 2
0.673948 -0.090523 0.000000 2
0.683677 -0.093196 0.000000 2
0.693399 -0.095909 0.000000 2
0.703112 -0.098660 0.000000 2
0.712817 -0.101449 0.000000 2
0.722514 -0.104277 0.000000 2
0.732202 -0.107143 0.000000 2
0.741882 -0.110048 0.000000 2
0.751554 -0.112991 0.000000 2
0.761216 -0.115973 0.000000 2
0.770870 -0.118993 0.000000 2
0.780515 -0.122051 0.000000 2
0.790151 -0.125148 0.000000 2
0.000000 0.000000 0.000000 3
0.010000 0.000000 0.000000 3
0.020000 0.000000 0.000000 3
0.030000 0.000000 0.000000 3
0.040000 0.000000 0.000000 3
0.050000 0.000000 0.000000 3
0.060000 0.000000 0.000000 3
0.070000 0.000000 0.000000 3
0.080000 0.000000 0.000000 3
0.090000 0.000000 0.000000 3
0.100000 0.000000 0.000000 3
0.110000 0.000000 0.000000 3
0.120000 0.000000 0.000000 3
0.130000 0.000000 0.000000 3
0.140000 0.000000 0.000000 3
0.150000 0.000000 0.000000 3
0.160000 0.000000 0.000000 3
0.170000 0.000000 0.000000 3
0.180000 0.000000 0.000000 3
0.190000 0.000000 0.000000 3
0.200000 0.000000 0.000000 3
0.210000 0.000000 0.000000 3
0.220000 0.000000 0.000000 3
0.230000 0.000000 0.000000 3
0.240000 0.000000 0.000000 3
0.250000 0.000000 0.000000 3
0.260000 0.000000 0.000000 3
0.270000 0.000000 0.000000 3
0.280000 0.000000 0.000000 3
0.290000 0.000000 0.000000 3
0.300000 0.000000 0.000000 3
0.310000 0.000000 0.000000 3
0.320000 0.000000 0.000000 3
0.330000 0.000000 0.000000 3
0.340000 0.000000 0.000000 3
0.350000 0.000000 0.000000 3
0.360000 0.000000 0.000000 3
0.370000 0.000000 0.000000 3
0.380000 0.000000 0.000000 3
0.390000 0.000000 0.000000 3
0.400000 0.000000 0.000000 3
0.410000 0.000000 0.000000 3
0.420000 0.000000 0.000000 3
0.430000 0.000000 0.000000 3
0.440000 0.000000 0.000000 3
0.450000 0.000000 0.000000 3
0.460000 0.000000 0.000000 3
0.470000 0.000000 0.000000 3
0.480000 0.000000 0.000000 3
0.490000 0.000000 0.000000 3
0.500000 0.000000 0.000000 3
0.510000 0.000000 0.000000 3
0.520000 0.000000 0.000000 3
0.530000 0.000000 0.000000 3
0.540000 0.000000 0.000000 3
0.550000 0.000000 0.000000 3
0.560000 0.000000 0.000000 3
0.570000 0.000000 0.000000 3
0.580000 0.000000 0.000000 3
0.590000 0.000000 0.000000 3
0.600000 0.000000 0.000000 3
0.610000 0.000000 0.000000 3
0.620000 0.000000 0.000000 3
0.630000 0.000000 0.000000 3
0.640000 0.000000 0.000000 3
0.650000 0.000000 0.000000 3
0.660000 0.000000 0.000000 3
0.670000 0.000000 0.000000 3
0.680000 0.000000 0.000000 3
0.690000 0.000000 0.000000 3
0.700000 0.000000 0.000000 3
0.710000 0.000000 0.000000 3
0.720000 0.000000 0.000000 3
0.730000 0.000000 0.000000 3
0.740000 0.000000 0.000000 3
0.750000 0.000000 0.000000 3
0.760000 0.000000 0.000000 3
0.770000 0.000000 0.000000 3
0.780000 0.000000 0.000000 3
0.790000 0.000000 0.000000 3
0.800000 0.000000 0.000000 3
0.000000 0.000000 0.000000 4
0.010000 0.000020 0.000000 4
0.020000 0.000079 0.000000 4
0.029999 0.000177 0.000000 4
0.039999 0.000314 0.000000 4
0.049998 0.000491 0.000000 4
0.059996 0.000707 0.000000 4
0.069993 0.000962 0.000000 4
0.079990 0.001257 0.000000 4
0.089986 0.001590 0.000000 4
0.099981 0.001963 0.000000 4
0.109974 0.002376 0.000000 4
0.119967 0.002827 0.000000 4
0.129958 0.003318 0.000000 4
0.139947 0.003848 0.000000 4
0.149935 0.004417 0.000000 4
0.159921 0.005026 0.000000 4
0.169905 0.005673 0.000000 4
0.179888 0.006360 0.000000 4
0.189868 0.007087 0.000000 4
0.199846 0.007852 0.000000 4
0.209822 0.008657 0.000000 4
0.219795 0.009500 0.000000 4
0.229766 0.010383 0.000000 4
0.239734 0.011306 0.000000 4
0.249699 0.012267 0.000000 4
0.259661 0.013267 0.000000 4
0.269621 0.014307 0.000000 4
0.279577 0.015386 0.000000 4
0.289530 0.016504 0.000000 4
0.299480 0.017661 0.000000 4
0.309426 0.018858 0.000000 4
0.319369 0.020093 0.000000 4
0.329308 0.021368 0.000000 4
0.339243 0.022681 0.000000 4
0.349174 0.024034 0.000000 4
0.359101 0.025426 0.000000 4
0.369024 0.026857 0.000000 4
0.378943 0.028327 0.000000 4
0.388857 0.029836 0.000000 4
0.398767 0.031384 0.000000 4
0.408672 0.032971 0.000000 4
0.418573 0.034597 0.000000 4
0.428468 0.036262 0.000000 4
0.438359 0.037966 0.000000 4
0.448245 0.039709 0.000000 4
0.458125 0.041491 0.000000 4
0.468000 0.043312 0.000000 4
0.477870 0.045172 0.000000 4
0.487734 0.047071 0.000000 4
0.497592 0.049009 0.000000 4
0.507445 0.050985 0.000000 4
0.517292 0.053001 0.000000 4
0.527133 0.055055 0.000000 4
0.536967 0.057148 0.000000 4
0.546796 0.059280 0.000000 4
0.556618 0.061451 0.000000 4
0.566434 0.063661 0.000000 4
0.576243 0.065909 0.000000 4
0.586045 0.068196 0.000000 4
0.595841 0.070522 0.000000 4
0.605630 0.072887 0.000000 4
0.615412 0.075290 0.000000 4
0.625186 0.077733 0.000000 4
0.634953 0.080213 0.000000 4
0.644713 0.082733 0.000000 4
0.654466 0.085291 0.000000 4
0.664211 0.087887 0.000000 4
0.673948 0.090523 0.000000 4
0.683677 0.093196 0.000000 4
0.693399 0.095909 0.000000 4
0.703112 0.098660 0.000000 4
0.712817 0.101449 0.000000 4
0.722514 0.104277 0.000000 4
0.732202 0.107143 0.000000 4
0.741882 0.110048 0.000000 4
0.751554 0.112991 0.000000 4
0.761216 0.115973 0.000000 4
0.770870 0.118993 0.000000 4
0.780515 0.122051 0.000000 4
0.790151 0.125148 0.000000 4
0.000000 0.000000 0.000000 5
0.010000 0.000039 0.000000 5
0.019999 0.000157 0.000000 5
0.029998 0.000353 0.000000 5
0.039995 0.000628 0.000000 5
0.049990 0.000982 0.000000 5
0.059983 0.001414 0.000000 5
0.069974 0.001924 0.000000 5
0.079961 0.002513 0.000000 5
0.089944 0.003180 0.000000 5
0.099923 0.003926 0.000000 5
0.109897 0.004750 0.000000 5
0.119867 0.005653 0.000000 5
0.129831 0.006634 0.000000 5
0.139788 0.007693 0.000000 5
0.149740 0.008831 0.000000 5
0.159684 0.010046 0.000000 5
0.169621 0.011341 0.000000 5
0.179551 0.012713 0.000000 5
0.189471 0.014163 0.000000 5
0.199383 0.015692 0.000000 5
0.209286 0.017298 0.000000 5
0.219179 0.018983 0.000000 5
0.229062 0.020746 0.000000 5
0.238935 0.022586 0.000000 5
0.248796 0.024504 0.000000 5
0.258646 0.026500 0.000000 5
0.268484 0.028574 0.000000 5
0.278309 0.030726 0.000000 5
0.288121 0.032955 0.000000 5
0.297921 0.035261 0.000000 5
0.307706 0.037645 0.000000 5
0.317477 0.040107 0.000000 5
0.327233 0.042645 0.000000 5
0.336974 0.045261 0.000000 5
0.346699 0.047954 0.000000 5
0.356409 0.050724 0.000000 5
0.366101 0.053572 0.000000 5
0.375777 0.056496 0.000000 5
0.385435 0.059496 0.000000 5
0.395075 0.062574 0.000000 5
0.404697 0.065728 0.000000 5
0.414300 0.068958 0.000000 5
0.423884 0.072265 0.000000 5
0.433448 0.075649 0.000000 5
0.442992 0.079108 0.000000 5
0.452515 0.082644 0.000000 5
0.462017 0.086256 0.000000 5
0.471498 0.089943 0.000000 5
0.480956 0.093706 0.000000 5
0.490393 0.097545 0.000000 5
0.499806 0.101460 0.000000 5
0.509196 0.105449 0.000000 5
0.518562 0.109514 0.000000 5
0.527904 0.113655 0.000000 5
0.537221 0.117870 0.000000 5
0.546513 0.122160 0.000000 5
0.555780 0.126525 0.000000 5
0.565021 0.130965 0.000000 5
0.574235 0.135479 0.000000 5
0.583422 0.140067 0.000000 5
0.592582 0.144730 0.000000 5
0.601714 0.149467 0.000000 5
0.610818 0.154277 0.000000 5
0.619893 0.159162 0.000000 5
0.628939 0.164120 0.000000 5
0.637956 0.169151 0.000000 5
0.646943 0.174256 0.000000 5
0.655899 0.179434 0.000000 5
0.664824 0.184685 0.000000 5
0.673719 0.190008 0.000000 5
0.682581 0.195405 0.000000 5
0.691411 0.200874 0.000000 5
0.700209 0.206415 0.000000 5
0.708974 0.212028 0.000000 5
0.717705 0.217714 0.000000 5
0.726403 0.223471 0.000000 5
0.735066 0.229299 0.000000 5
0.743694 0.235200 0.000000 5
0.752288 0.241171 0.000000 5
0.760845 0.247214 0.000000 5
0.000000 0.000000 0.000000 6
0.010000 0.000059 0.000000 6
0.019999 0.000236 0.000000 6
0.029995 0.000530 0.000000 6
0.039989 0.000942 0.000000 6
0.049978 0.001472 0.000000 6
0.059963 0.002120 0.000000 6
0.069941 0.002886 0.000000 6
0.079911 0.003769 0.000000 6
0.089874 0.004769 0.000000 6
0.099827 0.005887 0.000000 6
0.109769 0.007123 0.000000 6
0.119700 0.008475 0.000000 6
0.129619 0.009945 0.000000 6
0.139524 0.011532 0.000000 6
0.149415 0.013236 0.000000 6
0.159290 0.015057 0.000000 6
0.169148 0.016995 0.000000 6
0.178989 0.019049 0.000000 6
0.188811 0.021220 0.000000 6
0.198614 0.023507 0.000000 6
0.208395 0.025911 0.000000 6
0.218155 0.028430 0.000000 6
0.227892 0.031065 0.000000 6
0.237606 0.033816 0.000000 6
0.247294 0.036683 0.000000 6
0.256957 0.039664 0.000000 6
0.266592 0.042761 0.000000 6
0.276200 0.045972 0.000000 6
0.285779 0.049298 0.000000 6
0.295328 0.052739 0.000000 6
0.304846 0.056294 0.000000 6
0.314332 0.059962 0.000000 6
0.323785 0.063744 0.000000 6
0.333204 0.067640 0.000000 6
0.342588 0.071648 0.000000 6
0.351936 0.075770 0.000000 6
0.361247 0.080004 0.000000 6
0.370520 0.084350 0.000000 6
0.379754 0.088808 0.000000 6
0.388948 0.093378 0.000000 6
0.398101 0.098059 0.000000 6
0.407212 0.102851 0.000000 6
0.416280 0.107754 0.000000 6
0.425304 0.112767 0.000000 6
0.434283 0.117890 0.000000 6
0.443216 0.123123 0.000000 6
0.452103 0.128465 0.000000 6
0.460941 0.133916 0.000000 6
0.469730 0.139475 0.000000 6
0.478470 0.145142 0.000000 6
0.487159 0.150917 0.000000 6
0.495796 0.156800 0.000000 6
0.504381 0.162789 0.000000 6
0.512911 0.168885 0.000000 6
0.521387 0.175086 0.000000 6
0.529808 0.181394 0.000000 6
0.538172 0.187806 0.000000 6
0.546478 0.194323 0.000000 6
0.554726 0.200945 0.000000 6
0.562915 0.207670 0.000000 6
0.571043 0.214499 0.000000 6
0.579110 0.221430 0.000000 6
0.587115 0.228464 0.000000 6
0.595057 0.235600 0.000000 6
0.602935 0.242837 0.000000 6
0.610748 0.250175 0.000000 6
0.618495 0.257613 0.000000 6
0.626175 0.265151 0.000000 6
0.633788 0.272788 0.000000 6
0.641332 0.280524 0.000000 6
0.648806 0.288358 0.000000 6
0.656210 0.296290 0.000000 6
0.663543 0.304319 0.000000 6
0.670804 0.312445 0.000000 6
0.677992 0.320666 0.000000 6
0.685106 0.328983 0.000000 6
0.692145 0.337395 0.000000 6
0.699109 0.345901 0.000000 6
0.705996 0.354500 0.000000 6
0.712805 0.363192 0.000000 6
