ply
format ascii 1.0
element vertex 343
property float end_x
property float end_y
property float end_z
property int path_id
property int group_id
end_header
3.358846 -4.971735 0.000000 0 0
3.681165 -4.738040 0.000000 1 0
3.987276 -4.483485 0.000000 2 0
4.275831 -4.209189 0.000000 3 0
4.545561 -3.916360 0.000000 4 0
4.795277 -3.606289 0.000000 5 0
5.023880 -3.280339 0.000000 6 0
3.848095 -4.603495 0.000000 7 0
4.144916 -4.338165 0.000000 8 0
4.423487 -4.053734 0.000000 9 0
4.682582 -3.751456 0.000000 10 0
4.921061 -3.432661 0.000000 11 0
5.137873 -3.098752 0.000000 12 0
5.332064 -2.751199 0.000000 13 0
4.297264 -4.187305 0.000000 14 0
4.565495 -3.893104 0.000000 15 0
4.813625 -3.581761 0.000000 16 0
5.040561 -3.254649 0.000000 17 0
5.245305 -2.913207 0.000000 18 0
5.426954 -2.558939 0.000000 19 0
5.584709 -2.193404 0.000000 20 0
4.701673 -3.727502 0.000000 21 0
4.938521 -3.407493 0.000000 22 0
5.153625 -3.072482 0.000000 23 0
5.346039 -2.723943 0.000000 24 0
5.514915 -2.363411 0.000000 25 0
5.659510 -1.992473 0.000000 26 0
5.779187 -1.612762 0.000000 27 0
5.057111 -3.228874 0.000000 28 0
5.260109 -2.886392 0.000000 29 0
5.439947 -2.531201 0.000000 30 0
5.595834 -2.164865 0.000000 31 0
5.727084 -1.788998 0.000000 32 0
5.833118 -1.405254 0.000000 33 0
5.913469 -1.015323 0.000000 34 0
5.359875 -2.696616 0.000000 35 0
5.526909 -2.335226 0.000000 36 0
5.669608 -1.963555 0.000000 37 0
5.787345 -1.583238 0.000000 38 0
5.879600 -1.195951 0.000000 39 0
5.945969 -0.803398 0.000000 40 0
5.986159 -0.407308 0.000000 41 0
5.606813 -2.136270 0.000000 42 0
5.736142 -1.759737 0.000000 43 0
5.840216 -1.375457 0.000000 44 0
5.918576 -0.985121 0.000000 45 0
5.970877 -0.590448 0.000000 46 0
5.996889 -0.193175 0.000000 47 0
5.996499 0.204949 0.000000 48 0
4.095244 -4.385086 0.000000 49 1
4.377036 -4.103846 0.000000 50 1
4.639557 -3.804538 0.000000 51 1
4.881651 -3.488479 0.000000 52 1
5.102251 -3.157061 0.000000 53 1
5.300387 -2.811743 0.000000 54 1
5.475186 -2.454045 0.000000 55 1
4.520864 -3.944843 0.000000 56 1
4.772524 -3.636347 0.000000 57 1
5.003170 -3.311840 0.000000 58 1
5.211789 -2.972752 0.000000 59 1
5.397461 -2.620575 0.000000 60 1
5.559369 -2.256860 0.000000 61 1
5.696799 -1.883209 0.000000 62 1
4.899396 -3.463512 0.000000 63 1
5.118302 -3.130972 0.000000 64 1
5.314672 -2.784647 0.000000 65 1
5.487643 -2.426062 0.000000 66 1
5.636453 -2.056794 0.000000 67 1
5.760446 -1.678471 0.000000 68 1
5.859076 -1.292758 0.000000 69 1
5.226897 -2.946107 0.000000 70 1
5.410769 -2.592987 0.000000 71 1
5.570818 -2.228450 0.000000 72 1
5.706339 -1.854102 0.000000 73 1
5.816736 -1.471591 0.000000 74 1
5.901523 -1.082600 0.000000 75 1
5.960327 -0.688843 0.000000 76 1
5.499957 -2.398015 0.000000 77 1
5.646879 -2.027993 0.000000 78 1
5.768939 -1.649042 0.000000 79 1
5.865600 -1.262831 0.000000 80 1
5.936435 -0.871059 0.000000 81 1
5.981132 -0.475452 0.000000 82 1
5.999496 -0.077752 0.000000 83 1
5.715730 -1.824947 0.000000 84 1
5.824173 -1.441877 0.000000 85 1
5.906973 -1.052458 0.000000 86 1
5.963766 -0.658406 0.000000 87 1
5.994301 -0.261455 0.000000 88 1
5.998444 0.136647 0.000000 89 1
5.976177 0.534148 0.000000 90 1
5.871970 -1.232870 0.000000 91 1
5.940804 -0.840742 0.000000 92 1
5.983482 -0.444912 0.000000 93 1
5.999815 -0.047123 0.000000 94 1
5.989732 0.350873 0.000000 95 1
5.953277 0.747324 0.000000 96 1
5.890611 1.140485 0.000000 97 1
4.730803 -3.690461 0.000000 98 2
4.965131 -3.368602 0.000000 99 2
5.177597 -3.031911 0.000000 100 2
5.367268 -2.681872 0.000000 101 2
5.533307 -2.320024 0.000000 102 2
5.674984 -1.947962 0.000000 103 2
5.791675 -1.567324 0.000000 104 2
5.082314 -3.189057 0.000000 105 2
5.282616 -2.844990 0.000000 106 2
5.459659 -2.488398 0.000000 107 2
5.612664 -2.120849 0.000000 108 2
5.740958 -1.743963 0.000000 109 2
5.843974 -1.359398 0.000000 110 2
5.921261 -0.968848 0.000000 111 2
5.380889 -2.654437 0.000000 112 2
5.545079 -2.291746 0.000000 113 2
5.684855 -1.918966 0.000000 114 2
5.799601 -1.537736 0.000000 115 2
5.888812 -1.149736 0.000000 116 2
5.952096 -0.756674 0.000000 117 2
5.989173 -0.360281 0.000000 118 2
5.623418 -2.092168 0.000000 119 2
5.749786 -1.714632 0.000000 120 2
5.850838 -1.329546 0.000000 121 2
5.926130 -0.938607 0.000000 122 2
5.975330 -0.543535 0.000000 123 2
5.998222 -0.146070 0.000000 124 2
5.994704 0.252039 0.000000 125 2
5.807375 -1.508109 0.000000 126 2
5.894605 -1.119659 0.000000 127 2
5.955881 -0.726279 0.000000 128 2
5.990935 -0.329701 0.000000 129 2
5.999611 0.068328 0.000000 130 2
5.981872 0.466057 0.000000 131 2
5.937796 0.861733 0.000000 132 2
5.930844 -0.908341 0.000000 133 2
5.978027 -0.513023 0.000000 134 2
5.998889 -0.115446 0.000000 135 2
5.993339 0.282639 0.000000 136 2
5.961401 0.679479 0.000000 137 2
5.903217 1.073328 0.000000 138 2
5.819041 1.462452 0.000000 139 2
5.992540 -0.299113 0.000000 140 2
5.999184 0.098956 0.000000 141 2
5.979415 0.496588 0.000000 142 2
5.933319 0.892035 0.000000 143 2
5.861100 1.283553 0.000000 144 2
5.763075 1.669421 0.000000 145 2
5.639676 2.047938 0.000000 146 2
5.249874 -2.904964 0.000000 147 3
5.430967 -2.550411 0.000000 148 3
5.588148 -2.184629 0.000000 149 3
5.720725 -1.809228 0.000000 150 3
5.828115 -1.425861 0.000000 151 3
5.909844 -1.036217 0.000000 152 3
5.965553 -0.642010 0.000000 153 3
5.518621 -2.354745 0.000000 154 3
5.662633 -1.983581 0.000000 155 3
5.781713 -1.603683 0.000000 156 3
5.875337 -1.216724 0.000000 157 3
5.943093 -0.824408 0.000000 158 3
5.984682 -0.428462 0.000000 159 3
5.999922 -0.030630 0.000000 160 3
5.729887 -1.780000 0.000000 161 3
5.835318 -1.396090 0.000000 162 3
5.915057 -1.006033 0.000000 163 3
5.968753 -0.611547 0.000000 164 3
5.996169 -0.214368 0.000000 165 3
5.997186 0.183754 0.000000 166 3
5.971797 0.581068 0.000000 167 3
5.881472 -1.186714 0.000000 168 3
5.947224 -0.794057 0.000000 169 3
5.986791 -0.397905 0.000000 170 3
6.000000 0.000000 0.000000 171 3
5.986791 0.397905 0.000000 172 3
5.947224 0.794057 0.000000 173 3
5.881472 1.186714 0.000000 174 3
5.971797 -0.581068 0.000000 175 3
5.997186 -0.183754 0.000000 176 3
5.996169 0.214368 0.000000 177 3
5.968753 0.611547 0.000000 178 3
5.915057 1.006033 0.000000 179 3
5.835318 1.396090 0.000000 180 3
5.729887 1.780000 0.000000 181 3
5.999922 0.030630 0.000000 182 3
5.984682 0.428462 0.000000 183 3
5.943093 0.824408 0.000000 184 3
5.875337 1.216724 0.000000 185 3
5.781713 1.603683 0.000000 186 3
5.662633 1.983581 0.000000 187 3
5.518621 2.354745 0.000000 188 3
5.965553 0.642010 0.000000 189 3
5.909844 1.036217 0.000000 190 3
5.828115 1.425861 0.000000 191 3
5.720725 1.809228 0.000000 192 3
5.588148 2.184629 0.000000 193 3
5.430967 2.550411 0.000000 194 3
5.249874 2.904964 0.000000 195 3
5.639676 -2.047938 0.000000 196 4
5.763075 -1.669421 0.000000 197 4
5.861100 -1.283553 0.000000 198 4
5.933319 -0.892035 0.000000 199 4
5.979415 -0.496588 0.000000 200 4
5.999184 -0.098956 0.000000 201 4
5.992540 0.299113 0.000000 202 4
5.819041 -1.462452 0.000000 203 4
5.903217 -1.073328 0.000000 204 4
5.961401 -0.679479 0.000000 205 4
5.993339 -0.282639 0.000000 206 4
5.998889 0.115446 0.000000 207 4
5.978027 0.513023 0.000000 208 4
5.930844 0.908341 0.000000 209 4
5.937796 -0.861733 0.000000 210 4
5.981872 -0.466057 0.000000 211 4
5.999611 -0.068328 0.000000 212 4
5.990935 0.329701 0.000000 213 4
5.955881 0.726279 0.000000 214 4
5.894605 1.119659 0.000000 215 4
5.807375 1.508109 0.000000 216 4
5.994704 -0.252039 0.000000 217 4
5.998222 0.146070 0.000000 218 4
5.975330 0.543535 0.000000 219 4
5.926130 0.938607 0.000000 220 4
5.850838 1.329546 0.000000 221 4
5.749786 1.714632 0.000000 222 4
5.623418 2.092168 0.000000 223 4
5.989173 0.360281 0.000000 224 4
5.952096 0.756674 0.000000 225 4
5.888812 1.149736 0.000000 226 4
5.799601 1.537736 0.000000 227 4
5.684855 1.918966 0.000000 228 4
5.545079 2.291746 0.000000 229 4
5.380889 2.654437 0.000000 230 4
5.921261 0.968848 0.000000 231 4
5.843974 1.359398 0.000000 232 4
5.740958 1.743963 0.000000 233 4
5.612664 2.120849 0.000000 234 4
5.459659 2.488398 0.000000 235 4
5.282616 2.844990 0.000000 236 4
5.082314 3.189057 0.000000 237 4
5.791675 1.567324 0.000000 238 4
5.674984 1.947962 0.000000 239 4
5.533307 2.320024 0.000000 240 4
5.367268 2.681872 0.000000 241 4
5.177597 3.031911 0.000000 242 4
4.965131 3.368602 0.000000 243 4
4.730803 3.690461 0.000000 244 4
5.890611 -1.140485 0.000000 245 5
5.953277 -0.747324 0.000000 246 5
5.989732 -0.350873 0.000000 247 5
5.999815 0.047123 0.000000 248 5
5.983482 0.444912 0.000000 249 5
5.940804 0.840742 0.000000 250 5
5.871970 1.232870 0.000000 251 5
5.976177 -0.534148 0.000000 252 5
5.998444 -0.136647 0.000000 253 5
5.994301 0.261455 0.000000 254 5
5.963766 0.658406 0.000000 255 5
5.906973 1.052458 0.000000 256 5
5.824173 1.441877 0.000000 257 5
5.715730 1.824947 0.000000 258 5
5.999496 0.077752 0.000000 259 5
5.981132 0.475452 0.000000 260 5
5.936435 0.871059 0.000000 261 5
5.865600 1.262831 0.000000 262 5
5.768939 1.649042 0.000000 263 5
5.646879 2.027993 0.000000 264 5
5.499957 2.398015 0.000000 265 5
5.960327 0.688843 0.000000 266 5
5.901523 1.082600 0.000000 267 5
5.816736 1.471591 0.000000 268 5
5.706339 1.854102 0.000000 269 5
5.570818 2.228450 0.000000 270 5
5.410769 2.592987 0.000000 271 5
5.226897 2.946107 0.000000 272 5
5.859076 1.292758 0.000000 273 5
5.760446 1.678471 0.000000 274 5
5.636453 2.056794 0.000000 275 5
5.487643 2.426062 0.000000 276 5
5.314672 2.784647 0.000000 277 5
5.118302 3.130972 0.000000 278 5
4.899396 3.463512 0.000000 279 5
5.696799 1.883209 0.000000 280 5
5.559369 2.256860 0.000000 281 5
5.397461 2.620575 0.000000 282 5
5.211789 2.972752 0.000000 283 5
5.003170 3.311840 0.000000 284 5
4.772524 3.636347 0.000000 285 5
4.520864 3.944843 0.000000 286 5
5.475186 2.454045 0.000000 287 5
5.300387 2.811743 0.000000 288 5
5.102251 3.157061 0.000000 289 5
4.881651 3.488479 0.000000 290 5
4.639557 3.804538 0.000000 291 5
4.377036 4.103846 0.000000 292 5
4.095244 4.385086 0.000000 293 5
5.996499 -0.204949 0.000000 294 6
5.996889 0.193175 0.000000 295 6
5.970877 0.590448 0.000000 296 6
5.918576 0.985121 0.000000 297 6
5.840216 1.375457 0.000000 298 6
5.736142 1.759737 0.000000 299 6
5.606813 2.136270 0.000000 300 6
5.986159 0.407308 0.000000 301 6
5.945969 0.803398 0.000000 302 6
5.879600 1.195951 0.000000 303 6
5.787345 1.583238 0.000000 304 6
5.669608 1.963555 0.000000 305 6
5.526909 2.335226 0.000000 306 6
5.359875 2.696616 0.000000 307 6
5.913469 1.015323 0.000000 308 6
5.833118 1.405254 0.000000 309 6
5.727084 1.788998 0.000000 310 6
5.595834 2.164865 0.000000 311 6
5.439947 2.531201 0.000000 312 6
5.260109 2.886392 0.000000 313 6
5.057111 3.228874 0.000000 314 6
5.779187 1.612762 0.000000 315 6
5.659510 1.992473 0.000000 316 6
5.514915 2.363411 0.000000 317 6
5.346039 2.723943 0.000000 318 6
5.153625 3.072482 0.000000 319 6
4.938521 3.407493 0.000000 320 6
4.701673 3.727502 0.000000 321 6
5.584709 2.193404 0.000000 322 6
5.426954 2.558939 0.000000 323 6
5.245305 2.913207 0.000000 324 6
5.040561 3.254649 0.000000 325 6
4.813625 3.581761 0.000000 326 6
4.565495 3.893104 0.000000 327 6
4.297264 4.187305 0.000000 328 6
5.332064 2.751199 0.000000 329 6
5.137873 3.098752 0.000000 330 6
4.921061 3.432661 0.000000 331 6
4.682582 3.751456 0.000000 332 6
4.423487 4.053734 0.000000 333 6
4.144916 4.338165 0.000000 334 6
3.848095 4.603495 0.000000 335 6
5.023880 3.280339 0.000000 336 6
4.795277 3.606289 0.000000 337 6
4.545561 3.916360 0.000000 338 6
4.275831 4.209189 0.000000 339 6
3.987276 4.483485 0.000000 340 6
3.681165 4.738040 0.000000 341 6
3.358846 4.971735 0.000000 342 6
