ply
format ascii 1.0
element vertex 1407
property float x
property float y
property float z
property int group_id
end_header
0.000000 0.000000 0.000000 0
0.010000 -0.000024 0.000000 0
0.020000 -0.000094 0.000000 0
0.029999 -0.000212 0.000000 0
0.039998 -0.000377 0.000000 0
0.049997 -0.000589 0.000000 0
0.059994 -0.000848 0.000000 0
0.069990 -0.001154 0.000000 0
0.079986 -0.001508 0.000000 0
0.089980 -0.001908 0.000000 0
0.099972 -0.002356 0.000000 0
0.109963 -0.002851 0.000000 0
0.119952 -0.003392 0.000000 0
0.129939 -0.003981 0.000000 0
0.139924 -0.004617 0.000000 0
0.149906 -0.005300 0.000000 0
0.159886 -0.006030 0.000000 0
0.169864 -0.006808 0.000000 0
0.179838 -0.007632 0.000000 0
0.189810 -0.008503 0.000000 0
0.199778 -0.009421 0.000000 0
0.209743 -0.010387 0.000000 0
0.219704 -0.011399 0.000000 0
0.229662 -0.012458 0.000000 0
0.239616 -0.013564 0.000000 0
0.249566 -0.014718 0.000000 0
0.259512 -0.015918 0.000000 0
0.269454 -0.017165 0.000000 0
0.279391 -0.018459 0.000000 0
0.289323 -0.019800 0.000000 0
0.299251 -0.021188 0.000000 0
0.309173 -0.022623 0.000000 0
0.319091 -0.024105 0.000000 0
0.329003 -0.025633 0.000000 0
0.338910 -0.027208 0.000000 0
0.348811 -0.028831 0.000000 0
0.358706 -0.030500 0.000000 0
0.368595 -0.032215 0.000000 0
0.378478 -0.033978 0.000000 0
0.388355 -0.035787 0.000000 0
0.398225 -0.037643 0.000000 0
0.408088 -0.039546 0.000000 0
0.417945 -0.041495 0.000000 0
0.427795 -0.043492 0.000000 0
0.437638 -0.045534 0.000000 0
0.447473 -0.047624 0.000000 0
0.457301 -0.049760 0.000000 0
0.467121 -0.051942 0.000000 0
0.476933 -0.054171 0.000000 0
0.486738 -0.056447 0.000000 0
0.496534 -0.058769 0.000000 0
0.506322 -0.061137 0.000000 0
0.516102 -0.063552 0.000000 0
0.525873 -0.066014 0.000000 0
0.535635 -0.068521 0.000000 0
0.545388 -0.071076 0.000000 0
0.555132 -0.073676 0.000000 0
0.564867 -0.076323 0.000000 0
0.574592 -0.079016 0.000000 0
0.584308 -0.081755 0.000000 0
0.594014 -0.084541 0.000000 0
0.603710 -0.087372 0.000000 0
0.613396 -0.090250 0.000000 0
0.623072 -0.093174 0.000000 0
0.632737 -0.096144 0.000000 0
0.642392 -0.099161 0.000000 0
0.652036 -0.102223 0.000000 0
0.661669 -0.105331 0.000000 0
0.671291 -0.108485 0.000000 0
0.680901 -0.111685 0.000000 0
0.690500 -0.114931 0.000000 0
0.700088 -0.118223 0.000000 0
0.709664 -0.121560 0.000000 0
0.719228 -0.124943 0.000000 0
0.728780 -0.128372 0.000000 0
0.738320 -0.131847 0.000000 0
0.747847 -0.135368 0.000000 0
0.757362 -0.138934 0.000000 0
0.766864 -0.142545 0.000000 0
0.776354 -0.146202 0.000000 0
0.785830 -0.149905 0.000000 0
0.795293 -0.153653 0.000000 0
0.804743 -0.157447 0.000000 0
0.814179 -0.161286 0.000000 0
0.823601 -0.165170 0.000000 0
0.833010 -0.169099 0.000000 0
0.842405 -0.173074 0.000000 0
0.851785 -0.177094 0.000000 0
0.861151 -0.181159 0.000000 0
0.870503 -0.185269 0.000000 0
0.879840 -0.189425 0.000000 0
0.889162 -0.193625 0.000000 0
0.898469 -0.197870 0.000000 0
0.907762 -0.202160 0.000000 0
0.917039 -0.206495 0.000000 0
0.926300 -0.210875 0.000000 0
0.935546 -0.215300 0.000000 0
0.944776 -0.219769 0.000000 0
0.953990 -0.224283 0.000000 0
0.963188 -0.228842 0.000000 0
0.972370 -0.233445 0.000000 0
0.981535 -0.238093 0.000000 0
0.990684 -0.242785 0.000000 0
0.999816 -0.247522 0.000000 0
1.008932 -0.252303 0.000000 0
1.018030 -0.257129 0.000000 0
1.027111 -0.261998 0.000000 0
1.036175 -0.266912 0.000000 0
1.045221 -0.271870 0.000000 0
1.054249 -0.276872 0.000000 0
1.063260 -0.281918 0.000000 0
1.072253 -0.287008 0.000000 0
1.081227 -0.292142 0.000000 0
1.090184 -0.297320 0.000000 0
1.099122 -0.302542 0.000000 0
1.108041 -0.307808 0.000000 0
1.116941 -0.313117 0.000000 0
1.125823 -0.318470 0.000000 0
1.134685 -0.323866 0.000000 0
1.143529 -0.329306 0.000000 0
1.152352 -0.334789 0.000000 0
1.161157 -0.340316 0.000000 0
1.169941 -0.345886 0.000000 0
1.178706 -0.351500 0.000000 0
1.187451 -0.357156 0.000000 0
1.196175 -0.362856 0.000000 0
1.204880 -0.368599 0.000000 0
1.213563 -0.374384 0.000000 0
1.222227 -0.380213 0.000000 0
1.230869 -0.386085 0.000000 0
1.239490 -0.391999 0.000000 0
1.248091 -0.397957 0.000000 0
1.256670 -0.403956 0.000000 0
1.265228 -0.409999 0.000000 0
1.273764 -0.416084 0.000000 0
1.282278 -0.422212 0.000000 0
1.290771 -0.428382 0.000000 0
1.299241 -0.434594 0.000000 0
1.307690 -0.440849 0.000000 0
1.316116 -0.447145 0.000000 0
1.324520 -0.453484 0.000000 0
1.332901 -0.459865 0.000000 0
1.341259 -0.466288 0.000000 0
1.349594 -0.472753 0.000000 0
1.357906 -0.479260 0.000000 0
1.366195 -0.485809 0.000000 0
1.374461 -0.492399 0.000000 0
1.382703 -0.499031 0.000000 0
1.390922 -0.505704 0.000000 0
1.399116 -0.512419 0.000000 0
1.407287 -0.519176 0.000000 0
1.415434 -0.525973 0.000000 0
1.423556 -0.532812 0.000000 0
1.431654 -0.539692 0.000000 0
1.439727 -0.546613 0.000000 0
1.447776 -0.553576 0.000000 0
1.455799 -0.560579 0.000000 0
1.463798 -0.567623 0.000000 0
1.471771 -0.574708 0.000000 0
1.479720 -0.581833 0.000000 0
1.487642 -0.588999 0.000000 0
1.495540 -0.596206 0.000000 0
1.503411 -0.603453 0.000000 0
1.511256 -0.610741 0.000000 0
1.519076 -0.618068 0.000000 0
1.526869 -0.625437 0.000000 0
1.534636 -0.632845 0.000000 0
1.542376 -0.640293 0.000000 0
1.550090 -0.647781 0.000000 0
1.557777 -0.655309 0.000000 0
1.565437 -0.662877 0.000000 0
1.573070 -0.670485 0.000000 0
1.580676 -0.678132 0.000000 0
1.588255 -0.685819 0.000000 0
1.595806 -0.693545 0.000000 0
1.603329 -0.701310 0.000000 0
1.610824 -0.709115 0.000000 0
1.618292 -0.716959 0.000000 0
1.625732 -0.724843 0.000000 0
1.633143 -0.732765 0.000000 0
1.640526 -0.740726 0.000000 0
1.647880 -0.748726 0.000000 0
1.655206 -0.756764 0.000000 0
1.662503 -0.764842 0.000000 0
1.669771 -0.772958 0.000000 0
1.677010 -0.781112 0.000000 0
1.684220 -0.789305 0.000000 0
1.691401 -0.797536 0.000000 0
1.698552 -0.805805 0.000000 0
1.705673 -0.814113 0.000000 0
1.712765 -0.822458 0.000000 0
1.719826 -0.830841 0.000000 0
1.726858 -0.839262 0.000000 0
1.733860 -0.847721 0.000000 0
1.740831 -0.856218 0.000000 0
1.747771 -0.864752 0.000000 0
1.754681 -0.873323 0.000000 0
1.761561 -0.881932 0.000000 0
1.768409 -0.890578 0.000000 0
1.775227 -0.899261 0.000000 0
1.782013 -0.907981 0.000000 0
0.000000 0.000000 0.000000 1
0.010000 -0.000016 0.000000 1
0.020000 -0.000063 0.000000 1
0.030000 -0.000141 0.000000 1
0.039999 -0.000251 0.000000 1
0.049998 -0.000393 0.000000 1
0.059997 -0.000565 0.000000 1
0.069996 -0.000770 0.000000 1
0.079994 -0.001005 0.000000 1
0.089991 -0.001272 0.000000 1
0.099988 -0.001571 0.000000 1
0.109984 -0.001901 0.000000 1
0.119979 -0.002262 0.000000 1
0.129973 -0.002654 0.000000 1
0.139966 -0.003079 0.000000 1
0.149958 -0.003534 0.000000 1
0.159949 -0.004021 0.000000 1
0.169939 -0.004539 0.000000 1
0.179928 -0.005089 0.000000 1
0.189915 -0.005670 0.000000 1
0.199901 -0.006282 0.000000 1
0.209886 -0.006926 0.000000 1
0.219869 -0.007601 0.000000 1
0.229850 -0.008308 0.000000 1
0.239829 -0.009046 0.000000 1
0.249807 -0.009815 0.000000 1
0.259783 -0.010616 0.000000 1
0.269757 -0.011448 0.000000 1
0.279729 -0.012311 0.000000 1
0.289699 -0.013206 0.000000 1
0.299667 -0.014132 0.000000 1
0.309633 -0.015089 0.000000 1
0.319596 -0.016078 0.000000 1
0.329557 -0.017098 0.000000 1
0.339515 -0.018150 0.000000 1
0.349471 -0.019233 0.000000 1
0.359425 -0.020347 0.000000 1
0.369375 -0.021492 0.000000 1
0.379323 -0.022669 0.000000 1
0.389268 -0.023877 0.000000 1
0.399211 -0.025116 0.000000 1
0.409150 -0.026387 0.000000 1
0.419086 -0.027689 0.000000 1
0.429019 -0.029022 0.000000 1
0.438950 -0.030386 0.000000 1
0.448876 -0.031782 0.000000 1
0.458800 -0.033209 0.000000 1
0.468720 -0.034667 0.000000 1
0.478636 -0.036157 0.000000 1
0.488549 -0.037678 0.000000 1
0.498459 -0.039230 0.000000 1
0.508364 -0.040813 0.000000 1
0.518266 -0.042427 0.000000 1
0.528164 -0.044073 0.000000 1
0.538059 -0.045750 0.000000 1
0.547949 -0.047458 0.000000 1
0.557835 -0.049197 0.000000 1
0.567717 -0.050967 0.000000 1
0.577595 -0.052769 0.000000 1
0.587468 -0.054601 0.000000 1
0.597337 -0.056465 0.000000 1
0.607202 -0.058360 0.000000 1
0.617062 -0.060286 0.000000 1
0.626918 -0.062243 0.000000 1
0.636769 -0.064231 0.000000 1
0.646615 -0.066251 0.000000 1
0.656456 -0.068301 0.000000 1
0.666293 -0.070383 0.000000 1
0.676125 -0.072496 0.000000 1
0.685951 -0.074639 0.000000 1
0.695773 -0.076814 0.000000 1
0.705589 -0.079020 0.000000 1
0.715400 -0.081257 0.000000 1
0.725206 -0.083524 0.000000 1
0.735006 -0.085823 0.000000 1
0.744801 -0.088153 0.000000 1
0.754591 -0.090514 0.000000 1
0.764375 -0.092906 0.000000 1
0.774153 -0.095328 0.000000 1
0.783925 -0.097782 0.000000 1
0.793692 -0.100267 0.000000 1
0.803452 -0.102782 0.000000 1
0.813207 -0.105329 0.000000 1
0.822956 -0.107906 0.000000 1
0.832698 -0.110514 0.000000 1
0.842435 -0.113153 0.000000 1
0.852165 -0.115823 0.000000 1
0.861889 -0.118524 0.000000 1
0.871606 -0.121255 0.000000 1
0.881317 -0.124018 0.000000 1
0.891021 -0.126811 0.000000 1
0.900719 -0.129635 0.000000 1
0.910410 -0.132490 0.000000 1
0.920094 -0.135375 0.000000 1
0.929772 -0.138292 0.000000 1
0.939442 -0.141239 0.000000 1
0.949106 -0.144217 0.000000 1
0.958762 -0.147225 0.000000 1
0.968411 -0.150264 0.000000 1
0.978054 -0.153334 0.000000 1
0.987688 -0.156434 0.000000 1
0.997316 -0.159566 0.000000 1
1.006936 -0.162727 0.000000 1
1.016548 -0.165920 0.000000 1
1.026153 -0.169143 0.000000 1
1.035751 -0.172396 0.000000 1
1.045340 -0.175680 0.000000 1
1.054922 -0.178995 0.000000 1
1.064496 -0.182340 0.000000 1
1.074062 -0.185716 0.000000 1
1.083620 -0.189122 0.000000 1
1.093170 -0.192559 0.000000 1
1.102712 -0.196026 0.000000 1
1.112246 -0.199523 0.000000 1
1.121771 -0.203051 0.000000 1
1.131288 -0.206610 0.000000 1
1.140796 -0.210199 0.000000 1
1.150296 -0.213818 0.000000 1
1.159788 -0.217467 0.000000 1
1.169271 -0.221147 0.000000 1
1.178745 -0.224858 0.000000 1
1.188210 -0.228598 0.000000 1
1.197666 -0.232369 0.000000 1
1.207114 -0.236170 0.000000 1
1.216552 -0.240001 0.000000 1
1.225982 -0.243863 0.000000 1
1.235402 -0.247755 0.000000 1
1.244813 -0.251677 0.000000 1
1.254214 -0.255629 0.000000 1
1.263607 -0.259611 0.000000 1
1.272990 -0.263623 0.000000 1
1.282363 -0.267666 0.000000 1
1.291727 -0.271739 0.000000 1
1.301081 -0.275841 0.000000 1
1.310425 -0.279974 0.000000 1
1.319760 -0.284137 0.000000 1
1.329085 -0.288330 0.000000 1
1.338399 -0.292552 0.000000 1
1.347704 -0.296805 0.000000 1
1.356999 -0.301088 0.000000 1
1.366283 -0.305401 0.000000 1
1.375558 -0.309743 0.000000 1
1.384822 -0.314115 0.000000 1
1.394075 -0.318518 0.000000 1
1.403319 -0.322950 0.000000 1
1.412551 -0.327412 0.000000 1
1.421774 -0.331904 0.000000 1
1.430985 -0.336425 0.000000 1
1.440186 -0.340976 0.000000 1
1.449376 -0.345557 0.000000 1
1.458555 -0.350168 0.000000 1
1.467723 -0.354808 0.000000 1
1.476880 -0.359478 0.000000 1
1.486026 -0.364178 0.000000 1
1.495161 -0.368907 0.000000 1
1.504285 -0.373666 0.000000 1
1.513397 -0.378455 0.000000 1
1.522499 -0.383273 0.000000 1
1.531588 -0.388120 0.000000 1
1.540666 -0.392997 0.000000 1
1.549733 -0.397904 0.000000 1
1.558788 -0.402840 0.000000 1
1.567831 -0.407805 0.000000 1
1.576863 -0.412800 0.000000 1
1.585882 -0.417824 0.000000 1
1.594890 -0.422877 0.000000 1
1.603886 -0.427960 0.000000 1
1.612870 -0.433072 0.000000 1
1.621841 -0.438214 0.000000 1
1.630801 -0.443384 0.000000 1
1.639748 -0.448584 0.000000 1
1.648682 -0.453813 0.000000 1
1.657605 -0.459071 0.000000 1
1.666515 -0.464359 0.000000 1
1.675412 -0.469675 0.000000 1
1.684297 -0.475021 0.000000 1
1.693169 -0.480395 0.000000 1
1.702028 -0.485799 0.000000 1
1.710874 -0.491232 0.000000 1
1.719708 -0.496693 0.000000 1
1.728529 -0.502184 0.000000 1
1.737336 -0.507704 0.000000 1
1.746131 -0.513252 0.000000 1
1.754912 -0.518829 0.000000 1
1.763680 -0.524435 0.000000 1
1.772435 -0.530070 0.000000 1
1.781176 -0.535734 0.000000 1
1.789904 -0.541427 0.000000 1
1.798619 -0.547148 0.000000 1
1.807320 -0.552898 0.000000 1
1.816007 -0.558677 0.000000 1
1.824680 -0.564484 0.000000 1
1.833340 -0.570320 0.000000 1
1.841986 -0.576184 0.000000 1
1.850618 -0.582077 0.000000 1
1.859236 -0.587999 0.000000 1
1.867840 -0.593949 0.000000 1
1.876429 -0.599928 0.000000 1
1.885005 -0.605935 0.000000 1
1.893566 -0.611970 0.000000 1
1.902113 -0.618034 0.000000 1
0.000000 0.000000 0.000000 2
0.010000 -0.000008 0.000000 2
0.020000 -0.000031 0.000000 2
0.030000 -0.000071 0.000000 2
0.040000 -0.000126 0.000000 2
0.050000 -0.000196 0.000000 2
0.059999 -0.000283 0.000000 2
0.069999 -0.000385 0.000000 2
0.079998 -0.000503 0.000000 2
0.089998 -0.000636 0.000000 2
0.099997 -0.000785 0.000000 2
0.109996 -0.000950 0.000000 2
0.119995 -0.001131 0.000000 2
0.129993 -0.001327 0.000000 2
0.139992 -0.001539 0.000000 2
0.149990 -0.001767 0.000000 2
0.159987 -0.002011 0.000000 2
0.169985 -0.002270 0.000000 2
0.179982 -0.002545 0.000000 2
0.189979 -0.002835 0.000000 2
0.199975 -0.003141 0.000000 2
0.209971 -0.003463 0.000000 2
0.219967 -0.003801 0.000000 2
0.229962 -0.004155 0.000000 2
0.239957 -0.004524 0.000000 2
0.249952 -0.004908 0.000000 2
0.259946 -0.005309 0.000000 2
0.269939 -0.005725 0.000000 2
0.279932 -0.006157 0.000000 2
0.289925 -0.006605 0.000000 2
0.299917 -0.007068 0.000000 2
0.309908 -0.007547 0.000000 2
0.319899 -0.008042 0.000000 2
0.329889 -0.008552 0.000000 2
0.339879 -0.009078 0.000000 2
0.349868 -0.009620 0.000000 2
0.359856 -0.010177 0.000000 2
0.369844 -0.010751 0.000000 2
0.379831 -0.011339 0.000000 2
0.389817 -0.011944 0.000000 2
0.399803 -0.012564 0.000000 2
0.409787 -0.013200 0.000000 2
0.419772 -0.013852 0.000000 2
0.429755 -0.014519 0.000000 2
0.439737 -0.015202 0.000000 2
0.449719 -0.015901 0.000000 2
0.459700 -0.016615 0.000000 2
0.469680 -0.017346 0.000000 2
0.479659 -0.018091 0.000000 2
0.489637 -0.018853 0.000000 2
0.499615 -0.019630 0.000000 2
0.509591 -0.020423 0.000000 2
0.519566 -0.021231 0.000000 2
0.529541 -0.022055 0.000000 2
0.539514 -0.022895 0.000000 2
0.549487 -0.023751 0.000000 2
0.559458 -0.024622 0.000000 2
0.569429 -0.025509 0.000000 2
0.579398 -0.026412 0.000000 2
0.589367 -0.027330 0.000000 2
0.599334 -0.028264 0.000000 2
0.609300 -0.029213 0.000000 2
0.619265 -0.030179 0.000000 2
0.629229 -0.031160 0.000000 2
0.639192 -0.032156 0.000000 2
0.649153 -0.033169 0.000000 2
0.659113 -0.034197 0.000000 2
0.669073 -0.035240 0.000000 2
0.679030 -0.036300 0.000000 2
0.688987 -0.037375 0.000000 2
0.698942 -0.038465 0.000000 2
0.708896 -0.039571 0.000000 2
0.718849 -0.040693 0.000000 2
0.728801 -0.041831 0.000000 2
0.738751 -0.042984 0.000000 2
0.748699 -0.044153 0.000000 2
0.758646 -0.045338 0.000000 2
0.768592 -0.046538 0.000000 2
0.778537 -0.047754 0.000000 2
0.788480 -0.048985 0.000000 2
0.798421 -0.050232 0.000000 2
0.808361 -0.051495 0.000000 2
0.818300 -0.052774 0.000000 2
0.828237 -0.054068 0.000000 2
0.838173 -0.055378 0.000000 2
0.848107 -0.056703 0.000000 2
0.858039 -0.058044 0.000000 2
0.867970 -0.059401 0.000000 2
0.877899 -0.060773 0.000000 2
0.887827 -0.062161 0.000000 2
0.897753 -0.063564 0.000000 2
0.907677 -0.064983 0.000000 2
0.917599 -0.066418 0.000000 2
0.927520 -0.067869 0.000000 2
0.937439 -0.069335 0.000000 2
0.947357 -0.070816 0.000000 2
0.957273 -0.072314 0.000000 2
0.967186 -0.073827 0.000000 2
0.977099 -0.075355 0.000000 2
0.987009 -0.076899 0.000000 2
0.996917 -0.078459 0.000000 2
1.006824 -0.080034 0.000000 2
1.016729 -0.081625 0.000000 2
1.026632 -0.083232 0.000000 2
1.036533 -0.084854 0.000000 2
1.046432 -0.086492 0.000000 2
1.056329 -0.088145 0.000000 2
1.066224 -0.089814 0.000000 2
1.076117 -0.091499 0.000000 2
1.086008 -0.093199 0.000000 2
1.095897 -0.094915 0.000000 2
1.105785 -0.096646 0.000000 2
1.115670 -0.098393 0.000000 2
1.125553 -0.100156 0.000000 2
1.135434 -0.101934 0.000000 2
1.145312 -0.103728 0.000000 2
1.155189 -0.105537 0.000000 2
1.165064 -0.107362 0.000000 2
1.174936 -0.109202 0.000000 2
1.184806 -0.111058 0.000000 2
1.194674 -0.112930 0.000000 2
1.204540 -0.114817 0.000000 2
1.214404 -0.116720 0.000000 2
1.224265 -0.118638 0.000000 2
1.234124 -0.120572 0.000000 2
1.243981 -0.122521 0.000000 2
1.253835 -0.124486 0.000000 2
1.263688 -0.126467 0.000000 2
1.273537 -0.128463 0.000000 2
1.283385 -0.130475 0.000000 2
1.293230 -0.132502 0.000000 2
1.303072 -0.134545 0.000000 2
1.312913 -0.136603 0.000000 2
1.322750 -0.138677 0.000000 2
1.332586 -0.140766 0.000000 2
1.342419 -0.142871 0.000000 2
1.352249 -0.144991 0.000000 2
1.362077 -0.147127 0.000000 2
1.371902 -0.149279 0.000000 2
1.381725 -0.151446 0.000000 2
1.391545 -0.153628 0.000000 2
1.401363 -0.155826 0.000000 2
1.411178 -0.158040 0.000000 2
1.420990 -0.160269 0.000000 2
1.430800 -0.162513 0.000000 2
1.440607 -0.164773 0.000000 2
1.450412 -0.167049 0.000000 2
1.460214 -0.169340 0.000000 2
1.470013 -0.171646 0.000000 2
1.479809 -0.173969 0.000000 2
1.489603 -0.176306 0.000000 2
1.499394 -0.178659 0.000000 2
1.509182 -0.181028 0.000000 2
1.518967 -0.183412 0.000000 2
1.528749 -0.185811 0.000000 2
1.538529 -0.188226 0.000000 2
1.548306 -0.190657 0.000000 2
1.558079 -0.193103 0.000000 2
1.567850 -0.195564 0.000000 2
1.577618 -0.198041 0.000000 2
1.587384 -0.200533 0.000000 2
1.597146 -0.203041 0.000000 2
1.606905 -0.205564 0.000000 2
1.616661 -0.208103 0.000000 2
1.626414 -0.210657 0.000000 2
1.636165 -0.213227 0.000000 2
1.645912 -0.215812 0.000000 2
1.655656 -0.218412 0.000000 2
1.665397 -0.221028 0.000000 2
1.675135 -0.223659 0.000000 2
1.684870 -0.226306 0.000000 2
1.694601 -0.228968 0.000000 2
1.704330 -0.231646 0.000000 2
1.714055 -0.234339 0.000000 2
1.723777 -0.237048 0.000000 2
1.733496 -0.239772 0.000000 2
1.743212 -0.242511 0.000000 2
1.752925 -0.245266 0.000000 2
1.762634 -0.248036 0.000000 2
1.772340 -0.250821 0.000000 2
1.782043 -0.253622 0.000000 2
1.791742 -0.256439 0.000000 2
1.801438 -0.259270 0.000000 2
1.811131 -0.262117 0.000000 2
1.820820 -0.264980 0.000000 2
1.830506 -0.267858 0.000000 2
1.840189 -0.270751 0.000000 2
1.849868 -0.273660 0.000000 2
1.859543 -0.276584 0.000000 2
1.869216 -0.279523 0.000000 2
1.878884 -0.282478 0.000000 2
1.888550 -0.285448 0.000000 2
1.898211 -0.288433 0.000000 2
1.907870 -0.291434 0.000000 2
1.917524 -0.294450 0.000000 2
1.927175 -0.297482 0.000000 2
1.936823 -0.300528 0.000000 2
1.946467 -0.303590 0.000000 2
1.956107 -0.306668 0.000000 2
1.965744 -0.309761 0.000000 2
1.975377 -0.312869 0.000000 2
0.000000 0.000000 0.000000 3
0.010000 0.000000 0.000000 3
0.020000 0.000000 0.000000 3
0.030000 0.000000 0.000000 3
0.040000 0.000000 0.000000 3
0.050000 0.000000 0.000000 3
0.060000 0.000000 0.000000 3
0.070000 0.000000 0.000000 3
0.080000 0.000000 0.000000 3
0.090000 0.000000 0.000000 3
0.100000 0.000000 0.000000 3
0.110000 0.000000 0.000000 3
0.120000 0.000000 0.000000 3
0.130000 0.000000 0.000000 3
0.140000 0.000000 0.000000 3
0.150000 0.000000 0.000000 3
0.160000 0.000000 0.000000 3
0.170000 0.000000 0.000000 3
0.180000 0.000000 0.000000 3
0.190000 0.000000 0.000000 3
0.200000 0.000000 0.000000 3
0.210000 0.000000 0.000000 3
0.220000 0.000000 0.000000 3
0.230000 0.000000 0.000000 3
0.240000 0.000000 0.000000 3
0.250000 0.000000 0.000000 3
0.260000 0.000000 0.000000 3
0.270000 0.000000 0.000000 3
0.280000 0.000000 0.000000 3
0.290000 0.000000 0.000000 3
0.300000 0.000000 0.000000 3
0.310000 0.000000 0.000000 3
0.320000 0.000000 0.000000 3
0.330000 0.000000 0.000000 3
0.340000 0.000000 0.000000 3
0.350000 0.000000 0.000000 3
0.360000 0.000000 0.000000 3
0.370000 0.000000 0.000000 3
0.380000 0.000000 0.000000 3
0.390000 0.000000 0.000000 3
0.400000 0.000000 0.000000 3
0.410000 0.000000 0.000000 3
0.420000 0.000000 0.000000 3
0.430000 0.000000 0.000000 3
0.440000 0.000000 0.000000 3
0.450000 0.000000 0.000000 3
0.460000 0.000000 0.000000 3
0.470000 0.000000 0.000000 3
0.480000 0.000000 0.000000 3
0.490000 0.000000 0.000000 3
0.500000 0.000000 0.000000 3
0.510000 0.000000 0.000000 3
0.520000 0.000000 0.000000 3
0.530000 0.000000 0.000000 3
0.540000 0.000000 0.000000 3
0.550000 0.000000 0.000000 3
0.560000 0.000000 0.000000 3
0.570000 0.000000 0.000000 3
0.580000 0.000000 0.000000 3
0.590000 0.000000 0.000000 3
0.600000 0.000000 0.000000 3
0.610000 0.000000 0.000000 3
0.620000 0.000000 0.000000 3
0.630000 0.000000 0.000000 3
0.640000 0.000000 0.000000 3
0.650000 0.000000 0.000000 3
0.660000 0.000000 0.000000 3
0.670000 0.000000 0.000000 3
0.680000 0.000000 0.000000 3
0.690000 0.000000 0.000000 3
0.700000 0.000000 0.000000 3
0.710000 0.000000 0.000000 3
0.720000 0.000000 0.000000 3
0.730000 0.000000 0.000000 3
0.740000 0.000000 0.000000 3
0.750000 0.000000 0.000000 3
0.760000 0.000000 0.000000 3
0.770000 0.000000 0.000000 3
0.780000 0.000000 0.000000 3
0.790000 0.000000 0.000000 3
0.800000 0.000000 0.000000 3
0.810000 0.000000 0.000000 3
0.820000 0.000000 0.000000 3
0.830000 0.000000 0.000000 3
0.840000 0.000000 0.000000 3
0.850000 0.000000 0.000000 3
0.860000 0.000000 0.000000 3
0.870000 0.000000 0.000000 3
0.880000 0.000000 0.000000 3
0.890000 0.000000 0.000000 3
0.900000 0.000000 0.000000 3
0.910000 0.000000 0.000000 3
0.920000 0.000000 0.000000 3
0.930000 0.000000 0.000000 3
0.940000 0.000000 0.000000 3
0.950000 0.000000 0.000000 3
0.960000 0.000000 0.000000 3
0.970000 0.000000 0.000000 3
0.980000 0.000000 0.000000 3
0.990000 0.000000 0.000000 3
1.000000 0.000000 0.000000 3
1.010000 0.000000 0.000000 3
1.020000 0.000000 0.000000 3
1.030000 0.000000 0.000000 3
1.040000 0.000000 0.000000 3
1.050000 0.000000 0.000000 3
1.060000 0.000000 0.000000 3
1.070000 0.000000 0.000000 3
1.080000 0.000000 0.000000 3
1.090000 0.000000 0.000000 3
1.100000 0.000000 0.000000 3
1.110000 0.000000 0.000000 3
1.120000 0.000000 0.000000 3
1.130000 0.000000 0.000000 3
1.140000 0.000000 0.000000 3
1.150000 0.000000 0.000000 3
1.160000 0.000000 0.000000 3
1.170000 0.000000 0.000000 3
1.180000 0.000000 0.000000 3
1.190000 0.000000 0.000000 3
1.200000 0.000000 0.000000 3
1.210000 0.000000 0.000000 3
1.220000 0.000000 0.000000 3
1.230000 0.000000 0.000000 3
1.240000 0.000000 0.000000 3
1.250000 0.000000 0.000000 3
1.260000 0.000000 0.000000 3
1.270000 0.000000 0.000000 3
1.280000 0.000000 0.000000 3
1.290000 0.000000 0.000000 3
1.300000 0.000000 0.000000 3
1.310000 0.000000 0.000000 3
1.320000 0.000000 0.000000 3
1.330000 0.000000 0.000000 3
1.340000 0.000000 0.000000 3
1.350000 0.000000 0.000000 3
1.360000 0.000000 0.000000 3
1.370000 0.000000 0.000000 3
1.380000 0.000000 0.000000 3
1.390000 0.000000 0.000000 3
1.400000 0.000000 0.000000 3
1.410000 0.000000 0.000000 3
1.420000 0.000000 0.000000 3
1.430000 0.000000 0.000000 3
1.440000 0.000000 0.000000 3
1.450000 0.000000 0.000000 3
1.460000 0.000000 0.000000 3
1.470000 0.000000 0.000000 3
1.480000 0.000000 0.000000 3
1.490000 0.000000 0.000000 3
1.500000 0.000000 0.000000 3
1.510000 0.000000 0.000000 3
1.520000 0.000000 0.000000 3
1.530000 0.000000 0.000000 3
1.540000 0.000000 0.000000 3
1.550000 0.000000 0.000000 3
1.560000 0.000000 0.000000 3
1.570000 0.000000 0.000000 3
1.580000 0.000000 0.000000 3
1.590000 0.000000 0.000000 3
1.600000 0.000000 0.000000 3
1.610000 0.000000 0.000000 3
1.620000 0.000000 0.000000 3
1.630000 0.000000 0.000000 3
1.640000 0.000000 0.000000 3
1.650000 0.000000 0.000000 3
1.660000 0.000000 0.000000 3
1.670000 0.000000 0.000000 3
1.680000 0.000000 0.000000 3
1.690000 0.000000 0.000000 3
1.700000 0.000000 0.000000 3
1.710000 0.000000 0.000000 3
1.720000 0.000000 0.000000 3
1.730000 0.000000 0.000000 3
1.740000 0.000000 0.000000 3
1.750000 0.000000 0.000000 3
1.760000 0.000000 0.000000 3
1.770000 0.000000 0.000000 3
1.780000 0.000000 0.000000 3
1.790000 0.000000 0.000000 3
1.800000 0.000000 0.000000 3
1.810000 0.000000 0.000000 3
1.820000 0.000000 0.000000 3
1.830000 0.000000 0.000000 3
1.840000 0.000000 0.000000 3
1.850000 0.000000 0.000000 3
1.860000 0.000000 0.000000 3
1.870000 0.000000 0.000000 3
1.880000 0.000000 0.000000 3
1.890000 0.000000 0.000000 3
1.900000 0.000000 0.000000 3
1.910000 0.000000 0.000000 3
1.920000 0.000000 0.000000 3
1.930000 0.000000 0.000000 3
1.940000 0.000000 0.000000 3
1.950000 0.000000 0.000000 3
1.960000 0.000000 0.000000 3
1.970000 0.000000 0.000000 3
1.980000 0.000000 0.000000 3
1.990000 0.000000 0.000000 3
2.000000 0.000000 0.000000 3
0.000000 0.000000 0.000000 4
0.010000 0.000008 0.000000 4
0.020000 0.000031 0.000000 4
0.030000 0.000071 0.000000 4
0.040000 0.000126 0.000000 4
0.050000 0.000196 0.000000 4
0.059999 0.000283 0.000000 4
0.069999 0.000385 0.000000 4
0.079998 0.000503 0.000000 4
0.089998 0.000636 0.000000 4
0.099997 0.000785 0.000000 4
0.109996 0.000950 0.000000 4
0.119995 0.001131 0.000000 4
0.129993 0.001327 0.000000 4
0.139992 0.001539 0.000000 4
0.149990 0.001767 0.000000 4
0.159987 0.002011 0.000000 4
0.169985 0.002270 0.000000 4
0.179982 0.002545 0.000000 4
0.189979 0.002835 0.000000 4
0.199975 0.003141 0.000000 4
0.209971 0.003463 0.000000 4
0.219967 0.003801 0.000000 4
0.229962 0.004155 0.000000 4
0.239957 0.004524 0.000000 4
0.249952 0.004908 0.000000 4
0.259946 0.005309 0.000000 4
0.269939 0.005725 0.000000 4
0.279932 0.006157 0.000000 4
0.289925 0.006605 0.000000 4
0.299917 0.007068 0.000000 4
0.309908 0.007547 0.000000 4
0.319899 0.008042 0.000000 4
0.329889 0.008552 0.000000 4
0.339879 0.009078 0.000000 4
0.349868 0.009620 0.000000 4
0.359856 0.010177 0.000000 4
0.369844 0.010751 0.000000 4
0.379831 0.011339 0.000000 4
0.389817 0.011944 0.000000 4
0.399803 0.012564 0.000000 4
0.409787 0.013200 0.000000 4
0.419772 0.013852 0.000000 4
0.429755 0.014519 0.000000 4
0.439737 0.015202 0.000000 4
0.449719 0.015901 0.000000 4
0.459700 0.016615 0.000000 4
0.469680 0.017346 0.000000 4
0.479659 0.018091 0.000000 4
0.489637 0.018853 0.000000 4
0.499615 0.019630 0.000000 4
0.509591 0.020423 0.000000 4
0.519566 0.021231 0.000000 4
0.529541 0.022055 0.000000 4
0.539514 0.022895 0.000000 4
0.549487 0.023751 0.000000 4
0.559458 0.024622 0.000000 4
0.569429 0.025509 0.000000 4
0.579398 0.026412 0.000000 4
0.589367 0.027330 0.000000 4
0.599334 0.028264 0.000000 4
0.609300 0.029213 0.000000 4
0.619265 0.030179 0.000000 4
0.629229 0.031160 0.000000 4
0.639192 0.032156 0.000000 4
0.649153 0.033169 0.000000 4
0.659113 0.034197 0.000000 4
0.669073 0.035240 0.000000 4
0.679030 0.036300 0.000000 4
0.688987 0.037375 0.000000 4
0.698942 0.038465 0.000000 4
0.708896 0.039571 0.000000 4
0.718849 0.040693 0.000000 4
0.728801 0.041831 0.000000 4
0.738751 0.042984 0.000000 4
0.748699 0.044153 0.000000 4
0.758646 0.045338 0.000000 4
0.768592 0.046538 0.000000 4
0.778537 0.047754 0.000000 4
0.788480 0.048985 0.000000 4
0.798421 0.050232 0.000000 4
0.808361 0.051495 0.000000 4
0.818300 0.052774 0.000000 4
0.828237 0.054068 0.000000 4
0.838173 0.055378 0.000000 4
0.848107 0.056703 0.000000 4
0.858039 0.058044 0.000000 4
0.867970 0.059401 0.000000 4
0.877899 0.060773 0.000000 4
0.887827 0.062161 0.000000 4
0.897753 0.063564 0.000000 4
0.907677 0.064983 0.000000 4
0.917599 0.066418 0.000000 4
0.927520 0.067869 0.000000 4
0.937439 0.069335 0.000000 4
0.947357 0.070816 0.000000 4
0.957273 0.072314 0.000000 4
0.967186 0.073827 0.000000 4
0.977099 0.075355 0.000000 4
0.987009 0.076899 0.000000 4
0.996917 0.078459 0.000000 4
1.006824 0.080034 0.000000 4
1.016729 0.081625 0.000000 4
1.026632 0.083232 0.000000 4
1.036533 0.084854 0.000000 4
1.046432 0.086492 0.000000 4
1.056329 0.088145 0.000000 4
1.066224 0.089814 0.000000 4
1.076117 0.091499 0.000000 4
1.086008 0.093199 0.000000 4
1.095897 0.094915 0.000000 4
1.105785 0.096646 0.000000 4
1.115670 0.098393 0.000000 4
1.125553 0.100156 0.000000 4
1.135434 0.101934 0.000000 4
1.145312 0.103728 0.000000 4
1.155189 0.105537 0.000000 4
1.165064 0.107362 0.000000 4
1.174936 0.109202 0.000000 4
1.184806 0.111058 0.000000 4
1.194674 0.112930 0.000000 4
1.204540 0.114817 0.000000 4
1.214404 0.116720 0.000000 4
1.224265 0.118638 0.000000 4
1.234124 0.120572 0.000000 4
1.243981 0.122521 0.000000 4
1.253835 0.124486 0.000000 4
1.263688 0.126467 0.000000 4
1.273537 0.128463 0.000000 4
1.283385 0.130475 0.000000 4
1.293230 0.132502 0.000000 4
1.303072 0.134545 0.000000 4
1.312913 0.136603 0.000000 4
1.322750 0.138677 0.000000 4
1.332586 0.140766 0.000000 4
1.342419 0.142871 0.000000 4
1.352249 0.144991 0.000000 4
1.362077 0.147127 0.000000 4
1.371902 0.149279 0.000000 4
1.381725 0.151446 0.000000 4
1.391545 0.153628 0.000000 4
1.401363 0.155826 0.000000 4
1.411178 0.158040 0.000000 4
1.420990 0.160269 0.000000 4
1.430800 0.162513 0.000000 4
1.440607 0.164773 0.000000 4
1.450412 0.167049 0.000000 4
1.460214 0.169340 0.000000 4
1.470013 0.171646 0.000000 4
1.479809 0.173969 0.000000 4
1.489603 0.176306 0.000000 4
1.499394 0.178659 0.000000 4
1.509182 0.181028 0.000000 4
1.518967 0.183412 0.000000 4
1.528749 0.185811 0.000000 4
1.538529 0.188226 0.000000 4
1.548306 0.190657 0.000000 4
1.558079 0.193103 0.000000 4
1.567850 0.195564 0.000000 4
1.577618 0.198041 0.000000 4
1.587384 0.200533 0.000000 4
1.597146 0.203041 0.000000 4
1.606905 0.205564 0.000000 4
1.616661 0.208103 0.000000 4
1.626414 0.210657 0.000000 4
1.636165 0.213227 0.000000 4
1.645912 0.215812 0.000000 4
1.655656 0.218412 0.000000 4
1.665397 0.221028 0.000000 4
1.675135 0.223659 0.000000 4
1.684870 0.226306 0.000000 4
1.694601 0.228968 0.000000 4
1.704330 0.231646 0.000000 4
1.714055 0.234339 0.000000 4
1.723777 0.237048 0.000000 4
1.733496 0.239772 0.000000 4
1.743212 0.242511 0.000000 4
1.752925 0.245266 0.000000 4
1.762634 0.248036 0.000000 4
1.772340 0.250821 0.000000 4
1.782043 0.253622 0.000000 4
1.791742 0.256439 0.000000 4
1.801438 0.259270 0.000000 4
1.811131 0.262117 0.000000 4
1.820820 0.264980 0.000000 4
1.830506 0.267858 0.000000 4
1.840189 0.270751 0.000000 4
1.849868 0.273660 0.000000 4
1.859543 0.276584 0.000000 4
1.869216 0.279523 0.000000 4
1.878884 0.282478 0.000000 4
1.888550 0.285448 0.000000 4
1.898211 0.288433 0.000000 4
1.907870 0.291434 0.000000 4
1.917524 0.294450 0.000000 4
1.927175 0.297482 0.000000 4
1.936823 0.300528 0.000000 4
1.946467 0.303590 0.000000 4
1.956107 0.306668 0.000000 4
1.965744 0.309761 0.000000 4
1.975377 0.312869 0.000000 4
0.000000 0.000000 0.000000 5
0.010000 0.000016 0.000000 5
0.020000 0.000063 0.000000 5
0.030000 0.000141 0.000000 5
0.039999 0.000251 0.000000 5
0.049998 0.000393 0.000000 5
0.059997 0.000565 0.000000 5
0.069996 0.000770 0.000000 5
0.079994 0.001005 0.000000 5
0.089991 0.001272 0.000000 5
0.099988 0.001571 0.000000 5
0.109984 0.001901 0.000000 5
0.119979 0.002262 0.000000 5
0.129973 0.002654 0.000000 5
0.139966 0.003079 0.000000 5
0.149958 0.003534 0.000000 5
0.159949 0.004021 0.000000 5
0.169939 0.004539 0.000000 5
0.179928 0.005089 0.000000 5
0.189915 0.005670 0.000000 5
0.199901 0.006282 0.000000 5
0.209886 0.006926 0.000000 5
0.219869 0.007601 0.000000 5
0.229850 0.008308 0.000000 5
0.239829 0.009046 0.000000 5
0.249807 0.009815 0.000000 5
0.259783 0.010616 0.000000 5
0.269757 0.011448 0.000000 5
0.279729 0.012311 0.000000 5
0.289699 0.013206 0.000000 5
0.299667 0.014132 0.000000 5
0.309633 0.015089 0.000000 5
0.319596 0.016078 0.000000 5
0.329557 0.017098 0.000000 5
0.339515 0.018150 0.000000 5
0.349471 0.019233 0.000000 5
0.359425 0.020347 0.000000 5
0.369375 0.021492 0.000000 5
0.379323 0.022669 0.000000 5
0.389268 0.023877 0.000000 5
0.399211 0.025116 0.000000 5
0.409150 0.026387 0.000000 5
0.419086 0.027689 0.000000 5
0.429019 0.029022 0.000000 5
0.438950 0.030386 0.000000 5
0.448876 0.031782 0.000000 5
0.458800 0.033209 0.000000 5
0.468720 0.034667 0.000000 5
0.478636 0.036157 0.000000 5
0.488549 0.037678 0.000000 5
0.498459 0.039230 0.000000 5
0.508364 0.040813 0.000000 5
0.518266 0.042427 0.000000 5
0.528164 0.044073 0.000000 5
0.538059 0.045750 0.000000 5
0.547949 0.047458 0.000000 5
0.557835 0.049197 0.000000 5
0.567717 0.050967 0.000000 5
0.577595 0.052769 0.000000 5
0.587468 0.054601 0.000000 5
0.597337 0.056465 0.000000 5
0.607202 0.058360 0.000000 5
0.617062 0.060286 0.000000 5
0.626918 0.062243 0.000000 5
0.636769 0.064231 0.000000 5
0.646615 0.066251 0.000000 5
0.656456 0.068301 0.000000 5
0.666293 0.070383 0.000000 5
0.676125 0.072496 0.000000 5
0.685951 0.074639 0.000000 5
0.695773 0.076814 0.000000 5
0.705589 0.079020 0.000000 5
0.715400 0.081257 0.000000 5
0.725206 0.083524 0.000000 5
0.735006 0.085823 0.000000 5
0.744801 0.088153 0.000000 5
0.754591 0.090514 0.000000 5
0.764375 0.092906 0.000000 5
0.774153 0.095328 0.000000 5
0.783925 0.097782 0.000000 5
0.793692 0.100267 0.000000 5
0.803452 0.102782 0.000000 5
0.813207 0.105329 0.000000 5
0.822956 0.107906 0.000000 5
0.832698 0.110514 0.000000 5
0.842435 0.113153 0.000000 5
0.852165 0.115823 0.000000 5
0.861889 0.118524 0.000000 5
0.871606 0.121255 0.000000 5
0.881317 0.124018 0.000000 5
0.891021 0.126811 0.000000 5
0.900719 0.129635 0.000000 5
0.910410 0.132490 0.000000 5
0.920094 0.135375 0.000000 5
0.929772 0.138292 0.000000 5
0.939442 0.141239 0.000000 5
0.949106 0.144217 0.000000 5
0.958762 0.147225 0.000000 5
0.968411 0.150264 0.000000 5
0.978054 0.153334 0.000000 5
0.987688 0.156434 0.000000 5
0.997316 0.159566 0.000000 5
1.006936 0.162727 0.000000 5
1.016548 0.165920 0.000000 5
1.026153 0.169143 0.000000 5
1.035751 0.172396 0.000000 5
1.045340 0.175680 0.000000 5
1.054922 0.178995 0.000000 5
1.064496 0.182340 0.000000 5
1.074062 0.185716 0.000000 5
1.083620 0.189122 0.000000 5
1.093170 0.192559 0.000000 5
1.102712 0.196026 0.000000 5
1.112246 0.199523 0.000000 5
1.121771 0.203051 0.000000 5
1.131288 0.206610 0.000000 5
1.140796 0.210199 0.000000 5
1.150296 0.213818 0.000000 5
1.159788 0.217467 0.000000 5
1.169271 0.221147 0.000000 5
1.178745 0.224858 0.000000 5
1.188210 0.228598 0.000000 5
1.197666 0.232369 0.000000 5
1.207114 0.236170 0.000000 5
1.216552 0.240001 0.000000 5
1.225982 0.243863 0.000000 5
1.235402 0.247755 0.000000 5
1.244813 0.251677 0.000000 5
1.254214 0.255629 0.000000 5
1.263607 0.259611 0.000000 5
1.272990 0.263623 0.000000 5
1.282363 0.267666 0.000000 5
1.291727 0.271739 0.000000 5
1.301081 0.275841 0.000000 5
1.310425 0.279974 0.000000 5
1.319760 0.284137 0.000000 5
1.329085 0.288330 0.000000 5
1.338399 0.292552 0.000000 5
1.347704 0.296805 0.000000 5
1.356999 0.301088 0.000000 5
1.366283 0.305401 0.000000 5
1.375558 0.309743 0.000000 5
1.384822 0.314115 0.000000 5
1.394075 0.318518 0.000000 5
1.403319 0.322950 0.000000 5
1.412551 0.327412 0.000000 5
1.421774 0.331904 0.000000 5
1.430985 0.336425 0.000000 5
1.440186 0.340976 0.000000 5
1.449376 0.345557 0.000000 5
1.458555 0.350168 0.000000 5
1.467723 0.354808 0.000000 5
1.476880 0.359478 0.000000 5
1.486026 0.364178 0.000000 5
1.495161 0.368907 0.000000 5
1.504285 0.373666 0.000000 5
1.513397 0.378455 0.000000 5
1.522499 0.383273 0.000000 5
1.531588 0.388120 0.000000 5
1.540666 0.392997 0.000000 5
1.549733 0.397904 0.000000 5
1.558788 0.402840 0.000000 5
1.567831 0.407805 0.000000 5
1.576863 0.412800 0.000000 5
1.585882 0.417824 0.000000 5
1.594890 0.422877 0.000000 5
1.603886 0.427960 0.000000 5
1.612870 0.433072 0.000000 5
1.621841 0.438214 0.000000 5
1.630801 0.443384 0.000000 5
1.639748 0.448584 0.000000 5
1.648682 0.453813 0.000000 5
1.657605 0.459071 0.000000 5
1.666515 0.464359 0.000000 5
1.675412 0.469675 0.000000 5
1.684297 0.475021 0.000000 5
1.693169 0.480395 0.000000 5
1.702028 0.485799 0.000000 5
1.710874 0.491232 0.000000 5
1.719708 0.496693 0.000000 5
1.728529 0.502184 0.000000 5
1.737336 0.507704 0.000000 5
1.746131 0.513252 0.000000 5
1.754912 0.518829 0.000000 5
1.763680 0.524435 0.000000 5
1.772435 0.530070 0.000000 5
1.781176 0.535734 0.000000 5
1.789904 0.541427 0.000000 5
1.798619 0.547148 0.000000 5
1.807320 0.552898 0.000000 5
1.816007 0.558677 0.000000 5
1.824680 0.564484 0.000000 5
1.833340 0.570320 0.000000 5
1.841986 0.576184 0.000000 5
1.850618 0.582077 0.000000 5
1.859236 0.587999 0.000000 5
1.867840 0.593949 0.000000 5
1.876429 0.599928 0.000000 5
1.885005 0.605935 0.000000 5
1.893566 0.611970 0.000000 5
1.902113 0.618034 0.000000 5
0.000000 0.000000 0.000000 6
0.010000 0.000024 0.000000 6
0.020000 0.000094 0.000000 6
0.029999 0.000212 0.000000 6
0.039998 0.000377 0.000000 6
0.049997 0.000589 0.000000 6
0.059994 0.000848 0.000000 6
0.069990 0.001154 0.000000 6
0.079986 0.001508 0.000000 6
0.089980 0.001908 0.000000 6
0.099972 0.002356 0.000000 6
0.109963 0.002851 0.000000 6
0.119952 0.003392 0.000000 6
0.129939 0.003981 0.000000 6
0.139924 0.004617 0.000000 6
0.149906 0.005300 0.000000 6
0.159886 0.006030 0.000000 6
0.169864 0.006808 0.000000 6
0.179838 0.007632 0.000000 6
0.189810 0.008503 0.000000 6
0.199778 0.009421 0.000000 6
0.209743 0.010387 0.000000 6
0.219704 0.011399 0.000000 6
0.229662 0.012458 0.000000 6
0.239616 0.013564 0.000000 6
0.249566 0.014718 0.000000 6
0.259512 0.015918 0.000000 6
0.269454 0.017165 0.000000 6
0.279391 0.018459 0.000000 6
0.289323 0.019800 0.000000 6
0.299251 0.021188 0.000000 6
0.309173 0.022623 0.000000 6
0.319091 0.024105 0.000000 6
0.329003 0.025633 0.000000 6
0.338910 0.027208 0.000000 6
0.348811 0.028831 0.000000 6
0.358706 0.030500 0.000000 6
0.368595 0.032215 0.000000 6
0.378478 0.033978 0.000000 6
0.388355 0.035787 0.000000 6
0.398225 0.037643 0.000000 6
0.408088 0.039546 0.000000 6
0.417945 0.041495 0.000000 6
0.427795 0.043492 0.000000 6
0.437638 0.045534 0.000000 6
0.447473 0.047624 0.000000 6
0.457301 0.049760 0.000000 6
0.467121 0.051942 0.000000 6
0.476933 0.054171 0.000000 6
0.486738 0.056447 0.000000 6
0.496534 0.058769 0.000000 6
0.506322 0.061137 0.000000 6
0.516102 0.063552 0.000000 6
0.525873 0.066014 0.000000 6
0.535635 0.068521 0.000000 6
0.545388 0.071076 0.000000 6
0.555132 0.073676 0.000000 6
0.564867 0.076323 0.000000 6
0.574592 0.079016 0.000000 6
0.584308 0.081755 0.000000 6
0.594014 0.084541 0.000000 6
0.603710 0.087372 0.000000 6
0.613396 0.090250 0.000000 6
0.623072 0.093174 0.000000 6
0.632737 0.096144 0.000000 6
0.642392 0.099161 0.000000 6
0.652036 0.102223 0.000000 6
0.661669 0.105331 0.000000 6
0.671291 0.108485 0.000000 6
0.680901 0.111685 0.000000 6
0.690500 0.114931 0.000000 6
0.700088 0.118223 0.000000 6
0.709664 0.121560 0.000000 6
0.719228 0.124943 0.000000 6
0.728780 0.128372 0.000000 6
0.738320 0.131847 0.000000 6
0.747847 0.135368 0.000000 6
0.757362 0.138934 0.000000 6
0.766864 0.142545 0.000000 6
0.776354 0.146202 0.000000 6
0.785830 0.149905 0.000000 6
0.795293 0.153653 0.000000 6
0.804743 0.157447 0.000000 6
0.814179 0.161286 0.000000 6
0.823601 0.165170 0.000000 6
0.833010 0.169099 0.000000 6
0.842405 0.173074 0.000000 6
0.851785 0.177094 0.000000 6
0.861151 0.181159 0.000000 6
0.870503 0.185269 0.000000 6
0.879840 0.189425 0.000000 6
0.889162 0.193625 0.000000 6
0.898469 0.197870 0.000000 6
0.907762 0.202160 0.000000 6
0.917039 0.206495 0.000000 6
0.926300 0.210875 0.000000 6
0.935546 0.215300 0.000000 6
0.944776 0.219769 0.000000 6
0.953990 0.224283 0.000000 6
0.963188 0.228842 0.000000 6
0.972370 0.233445 0.000000 6
0.981535 0.238093 0.000000 6
0.990684 0.242785 0.000000 6
0.999816 0.247522 0.000000 6
1.008932 0.252303 0.000000 6
1.018030 0.257129 0.000000 6
1.027111 0.261998 0.000000 6
1.036175 0.266912 0.000000 6
1.045221 0.271870 0.000000 6
1.054249 0.276872 0.000000 6
1.063260 0.281918 0.000000 6
1.072253 0.287008 0.000000 6
1.081227 0.292142 0.000000 6
1.090184 0.297320 0.000000 6
1.099122 0.302542 0.000000 6
1.108041 0.307808 0.000000 6
1.116941 0.313117 0.000000 6
1.125823 0.318470 0.000000 6
1.134685 0.323866 0.000000 6
1.143529 0.329306 0.000000 6
1.152352 0.334789 0.000000 6
1.161157 0.340316 0.000000 6
1.169941 0.345886 0.000000 6
1.178706 0.351500 0.000000 6
1.187451 0.357156 0.000000 6
1.196175 0.362856 0.000000 6
1.204880 0.368599 0.000000 6
1.213563 0.374384 0.000000 6
1.222227 0.380213 0.000000 6
1.230869 0.386085 0.000000 6
1.239490 0.391999 0.000000 6
1.248091 0.397957 0.000000 6
1.256670 0.403956 0.000000 6
1.265228 0.409999 0.000000 6
1.273764 0.416084 0.000000 6
1.282278 0.422212 0.000000 6
1.290771 0.428382 0.000000 6
1.299241 0.434594 0.000000 6
1.307690 0.440849 0.000000 6
1.316116 0.447145 0.000000 6
1.324520 0.453484 0.000000 6
1.332901 0.459865 0.000000 6
1.341259 0.466288 0.000000 6
1.349594 0.472753 0.000000 6
1.357906 0.479260 0.000000 6
1.366195 0.485809 0.000000 6
1.374461 0.492399 0.000000 6
1.382703 0.499031 0.000000 6
1.390922 0.505704 0.000000 6
1.399116 0.512419 0.000000 6
1.407287 0.519176 0.000000 6
1.415434 0.525973 0.000000 6
1.423556 0.532812 0.000000 6
1.431654 0.539692 0.000000 6
1.439727 0.546613 0.000000 6
1.447776 0.553576 0.000000 6
1.455799 0.560579 0.000000 6
1.463798 0.567623 0.000000 6
1.471771 0.574708 0.000000 6
1.479720 0.581833 0.000000 6
1.487642 0.588999 0.000000 6
1.495540 0.596206 0.000000 6
1.503411 0.603453 0.000000 6
1.511256 0.610741 0.000000 6
1.519076 0.618068 0.000000 6
1.526869 0.625437 0.000000 6
1.534636 0.632845 0.000000 6
1.542376 0.640293 0.000000 6
1.550090 0.647781 0.000000 6
1.557777 0.655309 0.000000 6
1.565437 0.662877 0.000000 6
1.573070 0.670485 0.000000 6
1.580676 0.678132 0.000000 6
1.588255 0.685819 0.000000 6
1.595806 0.693545 0.000000 6
1.603329 0.701310 0.000000 6
1.610824 0.709115 0.000000 6
1.618292 0.716959 0.000000 6
1.625732 0.724843 0.000000 6
1.633143 0.732765 0.000000 6
1.640526 0.740726 0.000000 6
1.647880 0.748726 0.000000 6
1.655206 0.756764 0.000000 6
1.662503 0.764842 0.000000 6
1.669771 0.772958 0.000000 6
1.677010 0.781112 0.000000 6
1.684220 0.789305 0.000000 6
1.691401 0.797536 0.000000 6
1.698552 0.805805 0.000000 6
1.705673 0.814113 0.000000 6
1.712765 0.822458 0.000000 6
1.719826 0.830841 0.000000 6
1.726858 0.839262 0.000000 6
1.733860 0.847721 0.000000 6
1.740831 0.856218 0.000000 6
1.747771 0.864752 0.000000 6
1.754681 0.873323 0.000000 6
1.761561 0.881932 0.000000 6
1.768409 0.890578 0.000000 6
1.775227 0.899261 0.000000 6
1.782013 0.907981 0.000000 6
